<?xml version="1.0" encoding="UTF-8"?>
<svg id="Layer_2" data-name="Layer 2" xmlns="http://www.w3.org/2000/svg" viewBox="0 0 91.43 56.47">
  <g id="Layer_2-2" data-name="Layer 2">
    <g>
      <path d="m8.83,50.26c0,.4-.1.8-.4,1.3-.4.8-1,1.3-1.8,1.2-3.2-.2-4.8-.2-4.6-.2-.8,0-1.4-.3-1.7-1-.2-.6-.4-1.4-.3-2.4.1-.9.1-1.5.1-2-.1-2.1-.1-3.5,0-4.2,0-1.8.1-3.2.2-4.1.4-2.2.6-3.7.5-4.4-.2-3.1.1-5.7.7-7.9.4-1.5.5-2.9.5-4.5,0-.3,0-1-.1-2-.1-.8-.1-1.5-.1-2,0-1.2.2-4.3.6-9.3.1-.2.2-2.1.4-5.6,0-.5.1-1.1.4-1.8.3-.3.6-.5,1-.4.4.2.8.3,1.1.3.7.1,1.1.5,1.1,1.4.1.8.1,1.6,0,2.2-.2,1.9-.4,4.8-.5,8.6-.1,2.2-.2,5.6-.5,10-.1.4-.2,1.7-.7,3.8-.3,1.5-.4,2.8-.3,3.8s.1,2.3-.1,4.1c-.1,2-.2,3.3-.2,4.1,0,.5.1,1.4.2,2.7.1,1.2.1,2,.1,2.7,0,.8-.1,1.7-.2,2.5.6.7,1.4,1.1,2.5,1.2.2,0,.5,0,.9.1.8.5,1.2,1.1,1.2,1.8Z"/>
      <path d="m13.73,36.66c0,.5.1,1.2.1,1.7.4.8.5,1.6.6,2.2.1.7-.1,2-.2,3.9-.2,2.2-.4,4.3-.3,6.2-.1.6,0,1.4.1,2.3.1,1-.1,1.7-.5,1.9-.3.2-.9.3-1.9.3-.8,0-1.1-.5-1.1-1.9.2-1.2.3-2.9.4-5.3-.2-1.3-.5-3.3-.8-6,.1.4.1-1.9.3-6.9.1-2.1.1-4.6,0-7.6,0-1.6,0-4.2-.1-7.6,0-.2-.1-1-.1-2.3-.1-1,.1-1.6.5-2,.7-.5,1.5-.4,2.5.3.7.4,1,1.4.8,2.9-.1,1-.1,2.1.1,3.4.2,1.9.2,3.1.3,3.4.1,1.2-.1,2.2-.1,3.4-.1,1.5-.2,3.6-.5,6.5-.1.3-.1.7-.1,1.2Zm-2.9-28.9c-.4-1-.6-1.8-.5-2.3,0-.5.2-1.2.5-2,.2-.5.4-.7.7-.7.2,0,.4.1.7.2,1,.4,1.6.7,1.8.8.4.3.5.7.5,1.2,0,.2-.1.5-.1.7-.4,1.2-1.1,2.1-2.1,2.5-.5.3-1,.2-1.4-.2,0,0-.1-.2-.1-.2Z"/>
      <path d="m28.13,49.46c0,.4,0,.9-.2,1.4-.3.9-.9,1.5-1.7,1.5-3.2.3-4.8.5-4.6.5-.8.1-1.4-.1-1.8-.7-.3-.5-.5-1.3-.5-2.3,0-.9-.1-1.5-.1-2-.2-2.1-.4-3.5-.4-4.2-.1-1.8-.2-3.2-.1-4.1.2-2.3.3-3.8.1-4.4-.5-3-.4-5.7,0-7.9.3-1.5.3-3,.1-4.5,0-.3-.1-1-.2-2-.1-.8-.2-1.4-.2-2-.3-1.5-.4-4.6-.4-9.6,0-.2,0-2.1-.1-5.6,0-.5,0-1.1.3-1.8.3-.4.6-.5.9-.5h1.1c.7,0,1.1.4,1.3,1.2.1.8.2,1.6.2,2.2-.1,2,0,4.8.3,8.7.1,2.2.3,5.6.4,10,0,.4-.1,1.7-.3,3.9-.2,1.5-.2,2.8,0,3.8s.3,2.3.2,4.1c0,1.9,0,3.3.1,4.1,0,.5.2,1.4.4,2.7.2,1.1.3,2,.4,2.7.1.8.1,1.7,0,2.6.7.6,1.5.9,2.6.8.2,0,.5-.1.9-.1.8.2,1.3.8,1.3,1.5Z"/>
      <path d="m49.13,6.96c.2.6.2,1.5.2,2.5l-.7,8.4c-.2,1-.5,2.5-.8,4.6-.1,1.3-.4,2.1-1.1,2.2-.5.1-.7.4-.8.9-.1,1.2.1,2,.4,2.3.6.5,1,1.5,1.1,2.9.2,1.6.2,3.5.1,5.6-.1,2.6-.4,4.7-.8,6.3-.2.5-.5,1.3-.8,2.4-.1.2-.1,1.2-.2,3.1-.2,1.5-.7,2.5-1.5,3.2-1,.1-2.2.3-3.5.6-1.4.5-3.3.3-5.5-.6-.4-.2-.5-.6-.5-1.3,0-.5.1-1.5.3-3.2.2-1.3.2-2.5.1-3.3-.2-.5,0-1.1.4-1.5-.2-.7-.3-1.5-.3-2.2,0-.8.2-2.2.5-4.2.3-1.8.4-4.7.4-8.8,0-3,.2-6.1.4-9.1l.8-9.1c.1-1.5.3-3.1.4-4.7,0-.8.1-1.8.4-3.1.3-.7.9-1,1.7-.8,1.8.4,3.2.7,4.2.6.7,0,1.4.3,2,1.2l1.4,2.4c.5.8,1.1,1.7,1.6,2.4h.1v.3Zm-5.4,30.8c.2-1,.1-2.2-.1-3.4-.2-1.1-.8-1.8-1.9-2.2-1.4-.5-2.2,1.2-2.5,4.8-.1,2.1-.3,5.2-.7,9.3,1,.8,1.9,1.3,2.8,1.6.7-.7,1.3-1.2,1.6-1.5-.1-.7-.2-1.3-.2-1.9,0-.8.2-2,.4-3.3l.6-3.4Zm1.4-26.7c0-.7-.2-1.7-.5-3-.8-1.4-1.6-2.1-2.4-2.1-.4,0-.8.2-1.3.7.1.3.1.6.1.9,0,.5-.1,1-.1,1.5-.2.6-.2,1.4-.3,2.4l-.3,7.7v1.8c0,.5.4.9,1.1,1.1l1.3.2c.7.2,1-.1,1-.5.1-.8.7-2.9,1.5-6.4.2-.9.2-2.3-.1-4.3Z"/>
      <path d="m62.03,14.06c1.4,2.7,2,4.9,1.9,6.6,0,.4-.2,1.9-.5,4.7-.2,1.9-.2,3.5-.2,4.7.1,2.5.1,4.8.1,6.9-.1,2.7-.2,6.8-.7,12.2-.1,1.7-1,3.1-2.1,4.3l-1.1,1.2c-.5.5-.9.7-1.3.5-.7-.4-1.7-.8-3.2-1.3-2.5-.6-4-2.2-4.6-4.9-.3-1.9-.4-3.9-.3-5.8.1-2.4.2-5.7.2-10.1.1-4.6.1-8,.2-10.1s.4-4.4.6-6.9c.1-.9.5-1.8,1.3-2.5.5-.6,1.4-1.5,2.6-2.5.2-.7.7-.9,1.4-.8.8.1,1.4.2,1.7.3,1,.2,2,.7,2.9,1.4l1.1,2.1Zm-2.4,5.9c0-.7-.2-1.4-.5-1.9-.7-1.2-1.3-1.7-1.9-1.7-.5,0-1.1.4-1.6,1.2-.5,1-.5,2.5-.6,3.7-.2,3.2-.5,5-.5,5.5.1,1.2.2,2.8.2,4.9.1,2.4-.1,4.9-.7,7.6-.1.8-.2,1.7-.3,2.7,0,.4.1,2.2.4,5.3.2,1.9,1.2,2.8,2.9,2.7,1-.1,1.6-1.7,1.6-5,0,.4.1-1.3.1-5.2.1-5.2.4-11.1.7-17.7.1-.3.2-1,.2-2.1Z"/>
      <path d="m77.03,45.96c-.1.8-.1,1.8-.1,2.9v1.2c-.1.7-.2,1.2-.3,1.7-.8.5-1.7,1.2-2.6,2.1-1,.8-1.8,1.2-2.6,1.4-1,.2-2-.2-3.2-1.1l-3-2.7c-.3-.3-.5-1.1-.3-2.2.2-1.2.3-2,.3-2.4,0-.7.1-1.8.1-3.2.1-.8.2-1.9.4-3.1.3-2.1.5-4.4.7-6.9l.8-14c.1-2.3.4-4.6.7-7l.4-2.5c.3-2,.8-3,2.9-3.5.4-1.2,1.1-1.7,2.2-1.7.4,0,1,.2,1.7.5l1.8.7c.8.3,1.3.7,1.4,1.1.9,2.1,1.2,4.4.9,7.1-.1,1.2-.2,2.2-.5,2.8l-.3.9c0,.1,0,1.2.1,3,0,.7-.2,1.7-.6,3,0,3.5-.2,9.5-.8,18l-.1,3.9Zm-2.5-18.1c.5-4.1.8-6.5.9-7.1.2-1.5.2-3.1.2-4.6,0-.7.1-1.5.1-2.3,0-1-.1-1.7-.4-1.9-.4-.4-1-.8-1.8-1.2-.7-.4-1.4-.1-1.8,1-.2.7-.4,1.6-.4,2.6,0,3.2-.2,6.1-.5,8.5-.5,4-.8,6.9-.9,8.7-.2,2.9-.2,5.8,0,8.5,0,.4-.1.7-.2,1.2-.2.8-.4,1.1-.4,1.2-.1.9-.2,2.1-.3,3.4,0,2,.6,3.1,1.8,3.5.6.1,1.2-.9,1.7-3.2.3-1.1.4-2.2.5-3.2.1-1.1.2-2.1.2-3.2-.3-.1-.5-.4-.5-.9-.1-.4,0-.7.2-1.1.5-.7.7-1.6.8-2.7.3-1.9.5-4.3.8-7.2Z"/>
      <path d="m90.13,19.06c-.4,1.6-.4,3.2,0,4.9.7,3.4,1,6.5.9,9.4,0,.2-.1,1-.3,2.4-.2,1-.2,1.7,0,2.2.5,1.4.7,2.5.7,3.6-.1,3.1-.3,5.3-.6,6.7.2.4.2.8.2,1.2l-.3,1.1c0,.3-.1.6-.1.8s.1.7.3,1.5c.1.8-.1,1.3-.9,1.8l-1.8.5c-.4.3-1.2.6-2.1,1.1-.6.3-1.5.3-2.5-.1-.8-.4-1.7-.7-2.5-1-.6-.2-1-1.1-1.3-2.9-.2-1.1-.3-2.2-.6-3.3-.2-.6-.2-1.2.1-1.6.1-.5.5-.7,1.1-.7.7.2,1.3.3,1.6.5l1.1,3.2c.2.5.5.8,1.2,1.1.3.1.6.2.9.1.4,0,1.1-.4,2-1.1.1,0,.4-.6,1.1-1.9l-.1-1c0,.4.1-.8,0-3.5l-.2-5.4c0-1.1-.3-2.9-.5-5.3-.1-1.7-.7-3.5-.8-5-.1-.7,0-1.7.1-3.3.1-1.3.1-2.4-.1-3.2l-.4-2.3-.3-2.3c0,.3-.1-3-.3-9.8,0-1.1-.2-2.2-.3-3.4-.2-1.2.2-2,1.3-2.5.3-.1.6-.2.9-.2,1.1-.1,1.8.7,1.9,2.5.1,1.2.2,2.9.3,5.2.1,1.2.3,2.9.6,5.2.2,1.5.1,3.1-.3,4.8Z"/>
    </g>
  </g>
</svg>