<?xml version="1.0" encoding="UTF-8"?>
<svg id="Layer_2" data-name="Layer 2" xmlns="http://www.w3.org/2000/svg" viewBox="0 0 85.75 85.75">
  <defs>
    <style>
      .cls-1 {
        fill: #faaf1c;
      }

      .cls-2 {
        fill: #231f20;
      }
    </style>
  </defs>
  <g id="Layer_1-2" data-name="Layer 1">
    <circle class="cls-1" cx="42.88" cy="42.88" r="42.88"/>
    <g>
      <polyline points="26.87 48.28 37.25 48.28 37.25 37.47 48.07 37.47 48.07 26.65 26.87 26.65 26.87 48.28"/>
      <polyline points="37.25 59.1 58.89 59.1 58.89 37.47 48.07 37.47 48.07 48.28 37.25 48.28 37.25 59.1"/>
    </g>
    <g>
      <path class="cls-2" d="m50.35,8.79l1.11-4.16,4.4,1.18-.22.84-3.23-.87-.25.94,3.12.84-.22.83-3.12-.84-.42,1.55-1.16-.31Z"/>
      <path class="cls-2" d="m56.45,10.59l1.88-3.88,2.67,1.3c1.19.58,1.66,1.33,1.3,2.07-.3.63-.94.78-1.89.41l-.02.05c.39.3.46.57.51.93l.19,1.38-1.26-.61-.17-1.33c-.05-.4-.18-.58-.74-.86l-.71-.35-.68,1.41-1.08-.53Zm2.08-1.53l1.58.77c.51.25.8.25,1-.16.19-.38.02-.63-.49-.88l-1.58-.77-.5,1.04Z"/>
      <path class="cls-2" d="m62.51,13.77l2.59-3.44,3.64,2.74-.52.69-2.68-2.01-.51.67,2.58,1.94-.52.69-2.58-1.94-.52.69,2.68,2.01-.52.69-3.64-2.74Z"/>
      <path class="cls-2" d="m67.5,17.75l3.17-2.91,3.08,3.36-.64.58-2.26-2.47-.62.57,2.18,2.38-.63.58-2.18-2.38-.64.59,2.26,2.47-.64.59-3.08-3.36Z"/>
      <path class="cls-2" d="m73.97,26.36l3.06-1.58-.92-1.77.77-.4,2.39,4.62-.77.4-.92-1.77-3.06,1.58-.55-1.07Z"/>
      <path class="cls-2" d="m76.07,30.8l4.14-1.2.83,2.86c.37,1.27.13,2.13-.66,2.36-.67.2-1.22-.17-1.57-1.12h-.05c.04.5-.11.74-.34,1.02l-.89,1.07-.39-1.34.87-1.02c.26-.3.31-.53.13-1.13l-.22-.76-1.5.44-.34-1.16Zm2.53.52l.49,1.69c.16.55.35.76.79.63.41-.12.48-.41.32-.96l-.49-1.69-1.11.32Z"/>
      <path class="cls-2" d="m77.72,37.49l4.27-.58.16,1.19-4.27.58-.16-1.19Z"/>
      <path class="cls-2" d="m78.18,40.26l4.25,2.44-.04,1.72-4.35,2.28.03-1.38.96-.49.05-2.69-.94-.53.03-1.35Zm1.77,2.37l-.04,1.76.95-.49.67-.31v-.09s-.66-.34-.66-.34l-.93-.53Z"/>
      <path class="cls-2" d="m77.75,48.25l4.2.93-.26,1.18-3.36-.75-.7,3.13-.85-.19.96-4.3Z"/>
      <path class="cls-2" d="m77.93,55.77l.63-.5.28.67h.06s.44-.67.44-.67l.51.49-.51.62v.07s.64.18.64.18l-.31.8-.58-.29-.06.04-.05.81h-.7s.14-.8.14-.8l-.04-.04-.66.31-.13-.81.67-.19.03-.08-.36-.6Z"/>
      <path class="cls-2" d="m75.96,60.13l.69-.42.19.7h.06s.52-.6.52-.6l.45.55-.59.55v.07s.6.26.6.26l-.42.75-.54-.36-.06.03-.16.79-.7-.09.24-.77-.03-.05-.7.22-.02-.82.69-.1.04-.08-.28-.65Z"/>
      <path class="cls-2" d="m73.44,64.19l.74-.32.09.72h.06s.6-.52.6-.52l.37.6-.65.47v.07s.55.34.55.34l-.51.69-.49-.43-.06.02-.26.77-.68-.18.34-.74-.03-.05-.72.13.09-.81h.7s.05-.08.05-.08l-.19-.68Z"/>
      <path class="cls-2" d="m69.46,65.83l3.03,3.06-3.24,3.21-.61-.62,2.38-2.36-.68-.69-2.29,2.28-.61-.61,2.29-2.28-1.13-1.14.85-.85Z"/>
      <path class="cls-2" d="m64.83,70.2l2.4,3.58-2.47,1.66c-1.1.74-1.99.77-2.45.09-.39-.58-.2-1.21.59-1.84l-.03-.04c-.46.18-.73.12-1.06-.02l-1.29-.53,1.16-.78,1.24.52c.37.16.59.13,1.12-.21l.66-.44-.87-1.3,1-.67Zm.28,2.57l-1.46.98c-.47.32-.62.57-.37.94.24.35.53.33,1.01.01l1.46-.98-.64-.96Z"/>
      <path class="cls-2" d="m59.04,73.84l1.68,3.97-4.19,1.78-.34-.8,3.08-1.31-.33-.78-2.97,1.26-.34-.79,2.97-1.26-.34-.8-3.08,1.31-.34-.8,4.19-1.78Z"/>
      <path class="cls-2" d="m53.09,76.17l.93,4.21-4.44.98-.19-.85,3.27-.72-.18-.82-3.15.69-.19-.84,3.15-.69-.19-.85-3.27.72-.19-.85,4.44-.98Z"/>
      <path class="cls-2" d="m42.4,77.45l-.17,3.43,2,.1-.04.87-5.2-.26.04-.87,2,.1.17-3.43,1.2.06Z"/>
      <path class="cls-2" d="m37.49,77.02l-1.04,4.18-2.89-.72c-1.29-.32-1.91-.96-1.71-1.76.17-.68.76-.96,1.76-.79v-.05c-.43-.22-.56-.46-.68-.8l-.48-1.31,1.36.34.45,1.26c.13.38.3.53.91.68l.77.19.38-1.52,1.17.29Zm-1.72,1.93l-1.71-.42c-.55-.14-.83-.08-.94.36-.1.41.11.62.67.75l1.71.43.28-1.12Z"/>
      <path class="cls-2" d="m30.91,75.1l-1.63,3.99-1.12-.46,1.63-3.99,1.12.46Z"/>
      <path class="cls-2" d="m28.27,74.11l-4.24,2.46-1.47-.89.2-4.91,1.18.72-.06,1.08,2.3,1.4.93-.55,1.16.7Zm-2.94.35l-1.51-.91-.05,1.07-.06.74.08.04.63-.4.92-.54Z"/>
      <path class="cls-2" d="m21.56,69.73l-2.92,3.17-.88-.82,2.33-2.53-2.35-2.17.59-.64,3.24,2.99Z"/>
      <path class="cls-2" d="m14.98,66.11l.12.8-.72-.1-.03.05.35.72-.68.2-.28-.75-.06-.02-.47.45-.54-.67.54-.36v-.07s-.68-.45-.68-.45l.35-.61.62.52h.05s.06-.74.06-.74l.76.3-.18.67.05.07h.7Z"/>
      <path class="cls-2" d="m12.21,62.23v.81s-.69-.19-.69-.19l-.03.05.26.75-.7.11-.18-.78-.06-.03-.53.38-.44-.74.58-.29v-.07s-.6-.53-.6-.53l.43-.56.55.6h.06s.16-.72.16-.72l.72.39-.26.65.05.08.7.09Z"/>
      <path class="cls-2" d="m9.95,58.01l-.09.8-.67-.28-.04.04.16.78-.71.02-.08-.8-.06-.04-.57.31-.35-.79.62-.21v-.07s-.52-.61-.52-.61l.5-.5.47.66h.06s.25-.69.25-.69l.66.48-.34.61.04.08.68.18Z"/>
      <path class="cls-2" d="m10.51,53.72l-4.17,1.09-1.15-4.41.84-.22.85,3.24.94-.25-.82-3.12.83-.22.82,3.12,1.55-.41.3,1.17Z"/>
      <path class="cls-2" d="m9.06,47.53l-4.3.28-.19-2.96c-.09-1.32.33-2.11,1.16-2.16.7-.04,1.15.43,1.29,1.44h.05c.07-.49.26-.69.55-.91l1.1-.85.09,1.39-1.07.81c-.32.24-.42.45-.38,1.07l.05.79,1.56-.1.08,1.2Zm-2.37-1.05l-.11-1.75c-.04-.57-.18-.82-.63-.79-.42.03-.55.29-.52.86l.11,1.75,1.15-.07Z"/>
      <path class="cls-2" d="m8.82,40.7l-4.27-.54.57-4.52.86.11-.42,3.32.83.11.4-3.2.85.11-.4,3.2.86.11.42-3.32.86.11-.57,4.52Z"/>
      <path class="cls-2" d="m9.8,34.39l-4.1-1.3,1.38-4.34.83.26-1.02,3.19.8.25.98-3.08.82.26-.98,3.08.83.26,1.02-3.19.83.26-1.38,4.34Z"/>
      <path class="cls-2" d="m14.05,24.5l-2.89-1.87-1.09,1.68-.73-.47,2.83-4.37.73.47-1.09,1.68,2.89,1.87-.65,1.01Z"/>
      <path class="cls-2" d="m16.89,20.46l-3.09-3,2.07-2.13c.92-.95,1.79-1.17,2.38-.59.5.49.45,1.14-.2,1.92l.04.04c.41-.27.69-.26,1.04-.2l1.37.25-.97,1-1.32-.25c-.39-.08-.61,0-1.05.44l-.55.57,1.12,1.09-.84.86Zm-.8-2.46l1.23-1.26c.4-.41.48-.68.16-1-.3-.3-.59-.21-.99.2l-1.23,1.26.83.8Z"/>
      <path class="cls-2" d="m21.87,15.72l-2.62-3.41.96-.73,2.62,3.41-.96.74Z"/>
      <path class="cls-2" d="m24.04,13.95v-4.91s1.51-.82,1.51-.82l4.14,2.65-1.21.66-.9-.59-2.36,1.29v1.08s-1.18.65-1.18.65Zm1.17-2.71l1.54-.84-.89-.58-.61-.43-.08.04.03.75v1.07Z"/>
      <path class="cls-2" d="m31.19,10.34l-1.28-4.11,1.15-.36,1.02,3.28,3.06-.95.26.83-4.21,1.31Z"/>
      <path class="cls-2" d="m37.62,6.47l-.75-.3.44-.57-.03-.05-.8-.05.17-.69.79.14.05-.05-.15-.63.85-.12.04.65.06.03.73-.35.35.61-.76.27-.02.05.6.42-.64.51-.5-.49h-.09s-.35.62-.35.62Z"/>
      <path class="cls-2" d="m42.39,6.01l-.71-.39.51-.51-.03-.05-.78-.15.25-.66.77.24.05-.04-.07-.65h.86s-.05.63-.05.63l.06.04.77-.26.27.65-.79.17-.02.05.54.49-.7.42-.43-.55h-.09s-.42.56-.42.56Z"/>
      <path class="cls-2" d="m47.16,6.19l-.65-.48.58-.44-.02-.05-.75-.25.34-.62.73.34.06-.03.02-.65.85.1-.13.64.05.04.79-.15.18.68-.81.07-.03.05.47.56-.75.33-.35-.6h-.09s-.49.49-.49.49Z"/>
    </g>
  </g>
</svg>