<?xml version="1.0" encoding="UTF-8"?>
<svg id="Layer_2" data-name="Layer 2" xmlns="http://www.w3.org/2000/svg" viewBox="0 0 1073.48 982.42">
  <defs>
    <style>
      .cls-1 {
        fill: none;
        stroke: #fff;
        stroke-miterlimit: 10;
        stroke-width: 25px;
      }
    </style>
  </defs>
  <g id="Layer_2-2" data-name="Layer 2">
    <g id="Layer_2-2" data-name="Layer 2-2">
      <path d="m1029.51,420.76c-27.51-21.42-66.06-31.83-117.85-31.83h-164.04v-141.88c0-7.04,0-28.46-16.61-42.4-12.19-10.23-27.43-11.54-39.34-11.54s-26.88,1.32-39.03,11.64c-16.43,13.95-16.43,35.29-16.43,42.3v141.88h-47.66V53.94c0-7.04,0-28.46-16.61-42.4-12.19-10.23-27.43-11.54-39.34-11.54s-26.88,1.32-39.03,11.64c-16.43,13.95-16.43,35.29-16.43,42.3v334.99H161.82c-51.79,0-90.34,10.41-117.85,31.83C14.79,443.47,0,477.22,0,521.08v133.62c0,43.6,14.78,77.27,43.93,100.05,27.24,21.29,66.9,32.09,117.89,32.09h105.4c50.99,0,90.65-10.8,117.89-32.09,29.15-22.79,43.93-56.45,43.93-100.05v-153.57h48.12v427.35c0,7.01,0,28.35,16.43,42.3,12.15,10.32,27.24,11.64,39.03,11.64s27.14-1.31,39.34-11.54c16.6-13.93,16.6-35.36,16.6-42.4v-427.35h47.66v153.57c0,43.6,14.78,77.27,43.93,100.05,27.24,21.29,66.9,32.09,117.89,32.09h113.62c50.99,0,90.65-10.8,117.89-32.09,29.15-22.79,43.93-56.45,43.93-100.05v-133.62c0-43.86-14.79-77.61-43.97-100.32h0Zm-67.43,100.32v133.62c0,11.93-21.04,19.95-52.36,19.95h-109.75c-31.31,0-52.35-8.02-52.35-19.95v-153.57h162.1c24.15,0,52.36,5.23,52.36,19.95h0Zm-644.45,0v133.62c0,11.93-21.04,19.95-52.35,19.95h-101.53c-31.31,0-52.35-8.02-52.35-19.95v-133.62c0-14.73,28.2-19.95,52.35-19.95h101.53c24.15,0,52.35,5.23,52.35,19.95Z"/>
      <path class="cls-1" d="m161.82,413.94c-90.89,0-136.82,35.1-136.82,107.14v133.62c0,71.43,45.93,107.14,136.82,107.14h105.4c90.89,0,136.82-35.71,136.82-107.14v-178.57h98.12v452.35c0,23.4,10.15,28.94,30.46,28.94s30.94-5.54,30.94-28.94v-452.35h97.66v178.57c0,71.43,45.93,107.14,136.82,107.14h113.62c90.89,0,136.82-35.71,136.82-107.14v-133.62c0-72.04-45.93-107.14-136.82-107.14h-189.04v-166.88c0-23.4-10.15-28.94-30.94-28.94s-30.46,5.54-30.46,28.94v166.88h-97.66V53.94c0-23.4-10.15-28.94-30.94-28.94s-30.46,5.54-30.46,28.94v359.99H161.82Zm180.82,240.77c0,24.63-23.21,44.95-77.35,44.95h-101.53c-54.15,0-77.35-20.32-77.35-44.95v-133.62c0-25.25,23.21-44.95,77.35-44.95h101.53c54.15,0,77.35,19.7,77.35,44.95v133.62Zm644.45,0c0,24.63-23.21,44.95-77.36,44.95h-109.75c-54.15,0-77.35-20.32-77.35-44.95v-178.57h187.1c54.15,0,77.36,19.7,77.36,44.95v133.62h0Z"/>
    </g>
  </g>
</svg>