<?xml version="1.0" encoding="UTF-8"?>
<svg id="Layer_2" data-name="Layer 2" xmlns="http://www.w3.org/2000/svg" viewBox="0 0 339.13 181.79">
  <defs>
    <style>
      .cls-1 {
        fill: #fff;
      }
    </style>
  </defs>
  <g id="Layer_1-2" data-name="Layer 1">
    <path d="m204.93,181.79h-1.67c-1.79-.16-3.58-.31-5.36-.48-5.86-.42-11.65-1.54-17.25-3.34-6-2.1-10.47-5.81-12.53-12-1.48-4.42-3-8.85-2.34-14h-13c-15.16-.1-30.32-.21-45.47-.33-10.56-.09-21.11-.15-31.66-.36-8-.15-15.91-.79-23.86-.7-12.95.13-25.9.73-38.86,1-4.3.09-8.62-.2-12.93-.32v-7.39c.05-.56.14-1.11.15-1.66.29-18.72.57-37.44.85-56.15.06-3.91,0-7.82,0-11.9,2.9-.13,5.53-.31,8.16-.34,15.08-.19,30.15-.44,45.23-.46,7.11,0,14.23.33,21.33.7,3.35.04,6.49,1.68,8.43,4.42.97,1.72,1.81,3.52,2.5,5.38.18.39.47.93.8,1,2.72.57,5.48,1,8.2,1.59.97.13,1.88.57,2.57,1.26,1.23,1.79,3.38,2.71,5.52,2.37,4.27-.29,8.54-.6,12.81-.81,5.59-.38,11.21-.2,16.76.56,5.3.81,10.58,1.76,16,1.48,12.78-.66,25.55-1.42,38.33-2,4.55-.27,9.1-.27,13.65,0,6.47.48,12.75,2.14,19,3.83.64.15,1.3.12,1.92-.11,5.79-2.16,11.67-4,17.87-4.35,13.19-.53,26.4-.33,39.57.61,9.62.53,19.26.42,28.87-.31,5-.35,9.95-1.15,14.94-1.24,5.21-.09,10.44.41,15.67.66v3.87c-.07.63-.17,1.26-.19,1.89-.15,4.79-.31,9.59-.41,14.39-.22,10.55-.4,21.11-.63,31.66-.02.68-.18,1.34-.49,1.94-1.91,3.52-4.38,6.7-7.32,9.42-.52.41-1.15.66-1.81.7-3.11.23-6.23.36-9.34.54l-40.48,2.31c-11.33.64-22.67,1.27-34,1.95-.51.09-.96.37-1.27.79-2.3,3-4.34,6.15-6.86,8.91-6.64,7.26-14.68,12.29-24.47,14.15-2.31.43-4.6.59-6.93.87Zm-5.71-5v.1c1.09-.12,2.2-.17,3.29-.37.72-.12,1.38-.59,2.1-.67,3.7-.39,7.35-.83,10.63-2.86,1.3-.81,3-1,4.25-1.85,2.44-1.57,4.74-3.35,7.06-5.08.75-.51,1.42-1.13,2-1.82,1.28-1.67,2.68-3.25,3.23-5.38s1.68-4.13,1.2-6.45-.75-4.66-2.4-6.51c-.74-.83-1.69-1.49-2.37-2.36-1.44-1.79-3.32-3.17-5.46-4-1.46-.62-3.06-.9-4.55-1.46-1.16-.43-2.19-1.2-3.37-1.57-1.81-.57-3.71-.86-5.55-1.38-3.36-1-6.69-2-10-3-1.21-.34-2.25-1.1-2.13-2.17.16-1.26.76-2.42,1.7-3.27,2-1.64,4.72-1.81,7.22-2,2.91-.21,5.81-.33,8.52-1.51,1-.41,1.75-1.21,2.72-1.58,3.34-1.28,6-3.19,7.39-6.69,1.24-3.15,2.52-6.2,1.17-9.7-.59-1.53.38-2.71,2-3.15,1.07-.31,2.1-.77,3.05-1.35,1.5-.9,2.77-.57,3,1,.4,2.21.65,4.44.76,6.68.12,3.84,0,7.69,0,11.54-.04.28-.04.56,0,.84.62,2,.13,4-.32,6-.43,1.34-.38,2.79.13,4.1.3.83.35,1.74.14,2.6-.33,1.26-.05,2.61.75,3.64.22.37.41.75.58,1.15,1.5,2.51,3,5,6.24,5.61,2.15.56,4.32,1.01,6.52,1.33,2.05.02,4.11-.12,6.14-.42.12,0,.24-.02.35-.06,2.15-1,4.34-1.92,6.42-3s2.83-1,4,1c.32.77,1.05,1.3,1.89,1.36,1.76.12,3.52.11,5.27-.05,2.01-.34,4.08-.15,6,.54,1.14.31,2.36.02,3.24-.76.66-.94.24-1.85-.1-2.8-.74-1.66-1.29-3.4-1.65-5.19-.44-3.49-.58-7-.76-10.53-.06-1.17.2-2.36.2-3.55s-.21-2.61-.2-3.91c0-2,.19-4,.21-6v-10c-.02-.36,0-.72.06-1.07.37-1.78.27-3.63-.28-5.37-.5-1.56-1-2.06-2.6-1.94-2,.15-3.88.55-5.82.8-2.2.28-4.27,1.24-6.63.66-2-.48-3.53.86-2.28,3.2.97,1.5,1.41,3.27,1.25,5.05,0,.36.11.7.31,1,.7,1.43.85,3.06.41,4.59-.19.73-.28,1.48-.24,2.23.1,1.85.35,3.69.44,5.53.09,1.49.09,2.98,0,4.47-.22,3.31.44,6.64-.6,10-.23,1.09-.87,2.06-1.79,2.69-.67.48-1.37.91-2.11,1.28-1.14.59-2.36.99-3.63,1.17-1.72,0-3.35-.73-4.5-2-1.44-1.48-1.16-3.59-1.45-5.45-.14-1.47-.19-2.95-.16-4.43,0-1.4-.12-2.79-.15-4.19v-4.82c0-.89-.06-1.78,0-2.67,0-1.22.22-2.44.27-3.66.07-1.6.06-3.2.1-4.8s.1-3,.14-4.42v-2.06c0-1.44.12-3-1.15-3.89-1-.66-2.23-.34-3.38.18-.81.27-1.66.44-2.51.52-1.1.21-2.21.43-3.32.63-.68.19-1.38.28-2.08.28-1.92-.16-3.82-.44-5.73-.67-.28-.03-.56-.03-.84,0-1.21.14-2.41.36-3.62.42-1.48.07-3,0-4.46,0-.61,0-1.22.09-1.82,0-1.28-.13-2.57-.28-3.84-.53-1.04-.16-2.04-.46-3-.89-1.56-.9-3.31-1.41-5.11-1.51-1.23,0-2.46-.1-3.68-.19-2-.15-4-.64-5.89-.44-2.76.27-5.48.83-8.12,1.69-2.97.99-5.65,2.71-7.8,5-1.75,1.82-2.92,4.12-3.35,6.6-.46,2.76-.13,5.66-.08,8.5.03.5.22.98.53,1.38.73,1,1.62,1.78,2.31,2.76,1.64,2.3,3.55,4.08,6.57,4.29,1.27.12,2.25,1.15,2.32,2.42,0,.79-1,1.67-1.88,1.89-2.02.39-3.99.99-5.88,1.78-1.92,1.11-3.73,2.4-5.41,3.84-1.01.86-1.54,2.16-1.44,3.48,0,2.51,1.63,4.23,3.41,5.76.48.41,1.31.43,1.78.85,1.11,1.04,2.63,1.53,4.14,1.31.69-.09,1.36.28,1.66.91.92,1.47.28,3-1.37,3.69-1.55.65-3.03,1.45-4.43,2.37-1.31.89-2.34,2.21-3.67,3.07-2.13,1.19-3.81,3.07-4.75,5.32-.51,1.39-1.34,2.71-.91,4.35.15.93.25,1.88.29,2.82.05.46.2.91.44,1.31,1,1.52,2.07,3,3,4.52.72,1.14,1.83,1.98,3.12,2.37.86.24,1.71.53,2.53.88,3.38,1.64,7,1.88,10.68,2,1.87.1,3.68.06,5.53.06l-.04.04ZM17.88,105.34c.08-.68.25-1.36.5-2,.36-.78,1.28-1.13,2.06-.78.22.1.42.26.58.45.42.65.76,1.34,1,2.07,1.2,2.75,2.37,5.51,3.56,8.25.47,1.07,1,2.12,1.48,3.18,1.14,2.39,2.29,4.78,3.41,7.18.59,1.27,1.11,2.57,1.7,3.84,1,2.17,2,4.32,3.05,6.47l3.16,6.67c.4.84.77,1.7,1.17,2.54s.77,1.85,2,1.89,1.65-.72,2.08-1.58c.27-.56.48-1.14.73-1.71,1.27-2.86,2.54-5.71,3.79-8.58.12-.28.2-.58.24-.89.31-3.14,1.76-5.88,2.95-8.72.28-.67.85-1.21,1.15-1.88,1.38-3.09,2.8-6.16,4-9.31.8-2,1.22-4.19,2-6.22.38-.81,1-1.49,1.77-1.94.58-.2,1.21-.15,1.75.14.31.14.7.9.57,1.15-1.21,2.45-.55,5-.64,7.55-.05.48-.03.96.08,1.43.95,3.18-.1,6.38.09,9.57,0,0,0,.07-.05.11-.49,2.04-.47,4.16.05,6.19.62,1.6.68,3.36.17,5-.85,2.62-1.43,5.34-2.13,8-.39,1.48.17,2.28,1.68,2.18s3-.42,4.43-.58c1.95-.29,3.91-.47,5.88-.55,1.86.03,3.71.18,5.55.44.77.08,1.53.25,2.27.49.79.4,1.74.26,2.38-.35.81-.59,1.03-1.69.52-2.55-.89-1.47-1.44-3.11-1.64-4.82-.36-2.51-1-5-1.25-7.51-.35-3.86-.13-7.74-.48-11.62-.28-3.09-.2-6.22-.28-9.33-.11-3.85-1-7.68-.48-11.56.01-.08.01-.16,0-.24-.69-3.63-.76-7.35-.2-11,.28-2.12.36-4.28,1.36-6.29.38-.95.55-1.98.51-3,.09-.81-.5-1.54-1.32-1.63-.26-.03-.53.02-.77.13-.46.21-.94.36-1.44.46-1.39.07-2.74,1.05-4.11.36-1.23-.55-2.64-.55-3.87,0-.72.21-1.47.28-2.21.2-1.21-.07-2.41-.35-3.62-.4-1.86-.02-3.52,1.15-4.13,2.9-.17.52,0,1.14-.24,1.63-1.21,2.85-2.48,5.66-3.71,8.5-.22.53-.3,1.11-.47,1.67-.37,1.18-.7,2.38-1.13,3.54-.25.68-.71,1.28-1,2-.8,1.76-1.65,3.51-2.35,5.31-1,2.63-1.93,5.32-3,7.95-.27,1.02-.8,1.95-1.55,2.69-1.2.84-2.89-.18-3.44-1.84-.3-.93-.38-1.93-.74-2.82-1.29-3.25-2.65-6.47-4-9.7-.12-.29-.25-.58-.41-.85-.8-1.38-1.74-2.69-2.4-4.14-1.66-3.66-4.14-7-5-11,0-.18-.21-.32-.29-.5-.7-1.52-1.37-3.05-2.12-4.54-.21-.46-.6-.82-1.07-1-.71-.12-1.44-.14-2.16-.05-2.45.15-4.89.34-7.34.47-1.2.06-2.42-.1-3.61,0-1.94.15-3.89-.15-5.7-.87-1-.33-2.08.1-2.14,1-.04.7.04,1.41.26,2.08.65,2,1.73,3.83,2,5.83.44,3.45.7,6.92.77,10.4.08,2-.17,4-.2,6.07v7.11c0,.31.08.62.09.94,0,.85,0,1.71-.05,2.56-.12.7-.2,1.4-.24,2.1.08,1.33.38,2.65.42,4,.07,2.48,0,5,0,7.44,0,.43-.05.86-.13,1.29-.34,1.65-1,3.29-1,4.92-.11,2.87-.65,5.71-1.61,8.42-.41,1.41-1,2.77-1.46,4.19-.24.61.06,1.29.67,1.53.13.05.26.08.39.08.75.05,1.5,0,2.24-.14,2.26-.49,4.55-.82,6.86-1,2.36.1,4.71.43,7,1,2.31.47,3.1-.5,2.88-2.64-.05-.54-.52-1-.77-1.56-1-2.06-2.47-4-2.9-6.22-.67-3.92-1.1-7.87-1.3-11.84-.13-1.73.21-3.49.17-5.23s-.28-3.69-.44-5.54-.32-3.85-.51-5.78c-.08-.43-.19-.85-.32-1.26Zm121.44,11.1c.08-1.41.08-2.81,0-4.22-.47-2.89-1.51-5.66-3.06-8.15-1.11-2.33-2.72-4.38-4.73-6-2.68-2-5.45-3.9-8.67-4.7s-6.32-1.66-9.68-1.42c-2.78.2-5.54,0-8.32.86-1.62.49-3.25.74-4.9,1.41-2.19,1-4.3,2.18-6.3,3.51-2.88,1.78-5.13,4.43-6.42,7.56-.93,2.4-1.69,4.86-2.26,7.36-.47,1.69-.78,3.41-.92,5.16-.12,1.78.21,3.58.16,5.36-.15,4.5,1.28,8.91,4.04,12.47,2.19,2.87,4.39,5.83,8.16,7.26,3,1.13,6,2.2,9,3,1.17.28,2.39.38,3.59.3,1.89-.07,3.81-.57,5.66-.39,2.78.28,5.14-1,7.64-1.64,2.05-.46,3.98-1.37,5.65-2.66,1.51-1.24,3.38-2,4.62-3.68.93-1.23,2.2-2.24,2.91-3.57,1.21-2.24,2.21-4.58,3-7,.6-2.03.96-4.12,1.07-6.23.03-1.53-.05-3.07-.24-4.59Zm145.46,4.28c.26,2.31.43,4.84.86,7.32.15,1.24.65,2.42,1.42,3.41,1.8,2,2.61,4.64,4.87,6.31,1.27.94,1.92,2.66,3.68,3.1.36.09.62.48,1,.67,1.05.73,2.17,1.34,3.36,1.81,1.9.55,4,.54,5.83,1.21,3,1.11,6.18.66,9.26.91,1.54.13,3.15-.51,4.71-.89s3.14-.2,4.46-1.27c.46-.28.95-.5,1.47-.65,2.2-.87,4.18-2,4.82-4.53.27-1.1.83-2.12,1-3.22.13-.63.07-1.65-.32-2s-1.38-.17-2.07,0c-.48.17-.92.42-1.32.74-2.9,1.64-5.87,2.92-9.34,2.32-1.17-.21-2.39-.09-3.56-.29-.95-.24-1.87-.55-2.77-.93-2.61-.92-4.87-2.65-6.44-4.94-1.25-1.75-2.41-3.57-3.46-5.45-.35-.74-.54-1.54-.58-2.36.04-.92.02-1.84-.07-2.75-.25-1.19-.1-2.43.42-3.53.28-1.07,1.32-1.77,2.42-1.62,2.34.1,4.67.18,7,.24h3.38c1.13,0,2-.09,3-.18.46,0,.91-.28,1.37-.28,2.33-.14,4.67-.11,7,.07,1.55.19,3.28-.32,4.69.84.14.11.54,0,.78-.11,1.82-.69,2.42-1.49,2.36-3.47,0-1.08-.47-2.17-.43-3.25.1-3.05-.92-6.03-2.87-8.38-.73-.92-1.39-1.9-2.15-2.8-.47-.62-1.04-1.15-1.68-1.59-1.43-.91-2.92-1.72-4.46-2.43-1.36-.58-2.77-1.06-4.2-1.43-1.15-.36-2.34-.6-3.54-.71-2.2-.16-4.41-.16-6.61,0-1.89.27-3.76.66-5.6,1.17-2.57.54-4.99,1.62-7.11,3.17-1.75,1.45-3.38,3.04-4.88,4.75-2.11,2.43-3.6,5.33-4.37,8.46-.81,2.69-1.66,5.47-1.1,8.44.09,1.38.01,2.76-.23,4.12Zm-128.5-28v-.09c-1.28.18-2.57.33-3.85.55-2.69.47-5.38,1.32-8.08,1.37-3.29.05-3.6,1.29-2.23,3.83.11.21.21.43.34.63,1.65,2.59,1.88,5.51,2,8.47.28,2.61.28,5.25,0,7.86-.02.35,0,.71.07,1.06.06,1.19.12,2.39.16,3.58v6.27c0,1.57-.2,3.41-.24,5.11,0,.9.23,1.81.16,2.7-.15,1.72-.43,3.43-.67,5.14,0,.3,0,.71-.23.87-.95.85-1.39,2.13-1.17,3.39,0,.37.35,1,.61,1,1.09.19,2.19.28,3.29.26,1.09,0,2.17-.27,3.26-.41.74-.12,1.48-.19,2.23-.23.95,0,1.9.06,2.86.13s1.85.21,2.79.24c.59,0,1.19-.15,1.79-.13.82,0,1.64.21,2.47.21,1.37,0,2-.79,1.66-2.14s-.83-2.59-1-3.92c-.34-1.91-.54-3.85-.6-5.79,0-4.09-1.13-8.14-.89-12.28,0-.81-.23-1.65-.19-2.47.1-2.2.31-4.4.44-6.6-.07-.64-.07-1.3,0-1.94.45-1.48,1.04-2.92,1.76-4.29,1.1-2.04,3.64-2.8,5.68-1.7.03.02.07.04.1.06,1.09.55,2.11,1.23,3.23,1.68s2.32.91,3.47.09c1.77-1.12,3.23-2.66,4.24-4.49.61-1.04.74-2.29.35-3.43-.79-2.08-2.45-3.72-4.55-4.46-1.72-.7-3.63-.78-5.41-.23-2.81.83-5.37,2.36-7.42,4.46-.59.51-1.37.73-2.14.6-1-.24-1.06-1.28-1-2.18.2-1.8-.44-2.63-2.22-2.79-.35,0-.71.04-1.09.04l.02-.03Z"/>
    <path class="cls-1" d="m199.26,176.75h-5.42c-3.66-.11-7.3-.35-10.68-2-.82-.35-1.67-.64-2.53-.88-1.29-.39-2.4-1.23-3.12-2.37-1-1.53-2.05-3-3-4.52-.24-.4-.39-.85-.44-1.31-.04-.94-.14-1.89-.29-2.82-.43-1.64.4-3,.91-4.35.94-2.26,2.62-4.13,4.75-5.32,1.33-.86,2.36-2.18,3.67-3.07,1.4-.92,2.88-1.72,4.43-2.37,1.65-.73,2.29-2.22,1.37-3.69-.3-.63-.97-1-1.66-.91-1.51.22-3.03-.27-4.14-1.31-.47-.42-1.3-.44-1.78-.85-1.78-1.53-3.37-3.25-3.41-5.76-.1-1.32.43-2.62,1.44-3.48,1.68-1.44,3.49-2.73,5.41-3.84,1.89-.79,3.86-1.39,5.88-1.78.86-.22,1.85-1.1,1.88-1.89-.07-1.27-1.05-2.3-2.32-2.42-3-.21-4.93-2-6.57-4.29-.69-1-1.58-1.81-2.31-2.76-.31-.4-.5-.88-.53-1.38-.05-2.84-.38-5.74.08-8.5.43-2.48,1.6-4.78,3.35-6.6,2.15-2.29,4.83-4.01,7.8-5,2.64-.86,5.36-1.42,8.12-1.69,1.93-.2,3.92.29,5.89.44,1.22.09,2.45.19,3.68.19,1.8.1,3.55.61,5.11,1.51.96.43,1.96.73,3,.89,1.27.25,2.56.4,3.84.53.6.06,1.21,0,1.82,0h4.46c1.21-.06,2.41-.28,3.62-.42.28-.03.56-.03.84,0,1.91.23,3.81.51,5.73.67.7,0,1.4-.09,2.08-.28,1.11-.2,2.22-.42,3.32-.63.85-.08,1.7-.25,2.51-.52,1.15-.52,2.42-.84,3.38-.18,1.27.86,1.2,2.45,1.15,3.89v2.06c0,1.47-.1,3-.14,4.42s0,3.2-.1,4.8c0,1.22-.22,2.44-.27,3.66v7.49c0,1.4.11,2.79.15,4.19-.03,1.48.02,2.96.16,4.43.29,1.86,0,4,1.45,5.45,1.15,1.27,2.78,2,4.5,2,1.27-.18,2.49-.58,3.63-1.17.74-.37,1.44-.8,2.11-1.28.92-.63,1.56-1.6,1.79-2.69,1-3.32.38-6.65.6-10,.09-1.49.09-2.98,0-4.47-.09-1.84-.34-3.68-.44-5.53-.04-.75.05-1.5.24-2.23.44-1.53.29-3.16-.41-4.59-.2-.3-.31-.64-.31-1,.16-1.78-.28-3.55-1.25-5.05-1.25-2.34.29-3.68,2.28-3.2,2.36.58,4.43-.38,6.63-.66,1.94-.25,3.87-.65,5.82-.8,1.58-.12,2.1.38,2.6,1.94.55,1.74.65,3.59.28,5.37-.06.35-.08.71-.06,1.07v10c0,2-.2,4-.21,6,0,1.3.2,2.61.2,3.91s-.26,2.38-.2,3.55c.18,3.52.32,7,.76,10.53.36,1.79.91,3.53,1.65,5.19.34,1,.76,1.86.1,2.8-.88.78-2.1,1.07-3.24.76-1.92-.69-3.99-.88-6-.54-1.75.16-3.51.17-5.27.05-.84-.06-1.57-.59-1.89-1.36-1.18-2-2-2.14-4-1s-4.27,2-6.42,3c-.11.04-.23.06-.35.06-2.03.3-4.09.44-6.14.42-2.2-.32-4.37-.77-6.52-1.33-3.21-.63-4.74-3.1-6.24-5.61-.17-.4-.36-.78-.58-1.15-.8-1.03-1.08-2.38-.75-3.64.21-.86.16-1.77-.14-2.6-.51-1.31-.56-2.76-.13-4.1.45-1.93.94-3.93.32-6-.04-.28-.04-.56,0-.84,0-3.85.09-7.7,0-11.54-.11-2.24-.36-4.47-.76-6.68-.26-1.62-1.53-1.95-3-1-.95.58-1.98,1.04-3.05,1.35-1.59.44-2.56,1.62-2,3.15,1.35,3.5.07,6.55-1.17,9.7-1.37,3.5-4,5.41-7.39,6.69-1,.37-1.76,1.17-2.72,1.58-2.71,1.18-5.61,1.3-8.52,1.51-2.5.18-5.18.35-7.22,2-.94.85-1.54,2.01-1.7,3.27-.12,1.07.92,1.83,2.13,2.17,3.36,1,6.69,2,10,3,1.84.52,3.74.81,5.55,1.38,1.18.37,2.21,1.14,3.37,1.57,1.49.56,3.09.84,4.55,1.46,2.14.83,4.02,2.21,5.46,4,.68.87,1.63,1.53,2.37,2.36,1.65,1.85,1.92,4.22,2.4,6.51s-.66,4.33-1.2,6.45-1.95,3.71-3.23,5.38c-.58.69-1.25,1.31-2,1.82-2.32,1.73-4.62,3.51-7.06,5.08-1.28.82-3,1-4.25,1.85-3.28,2-6.93,2.47-10.63,2.86-.72.08-1.38.55-2.1.67-1.09.2-2.2.25-3.29.37l-.07-.2Zm3.73-7.72c2.3.18,4.59-.38,6.55-1.58,1.69-.88,3.61-1.76,4.74-3.18,1.68-2.1,3.17-4.39,2.78-7.55s-1.63-4.82-4.4-5.87c-2.21-.83-4.55-1.32-6.83-2-1.56-.46-3.14-.92-4.66-1.5-2.14-.95-4.66-.25-6,1.67-.43.51-.87,1-1.3,1.54-1.93,2.38-4,4.66-3.78,8.1.16,2.79.63,5.17,3.15,7.05,2.91,2.22,6.02,3.56,9.71,3.32h.04Zm.18-51.08c2.44-.15,4.56-1.72,5.42-4,1.17-3.29.87-6.64.39-10-.1-1.25-.55-2.45-1.29-3.46-1.07-.96-2.28-1.74-3.6-2.31-.8-.42-1.79-.2-2.35.51-.57.53-1.27.93-1.83,1.48-.58.48-1.05,1.07-1.37,1.75-.6,1.45-.8,3.03-.58,4.58.53,2.86.37,5.83,1.46,8.64.44,1.68,1.97,2.84,3.71,2.81h.04Z"/>
    <path class="cls-1" d="m17.88,105.34c.13.42.23.85.3,1.29.19,1.93.35,3.85.51,5.78s.39,3.69.44,5.54-.3,3.5-.17,5.23c.2,3.97.63,7.92,1.3,11.84.43,2.18,1.89,4.16,2.9,6.22.25.53.72,1,.77,1.56.22,2.14-.57,3.11-2.88,2.64-2.29-.57-4.64-.9-7-1-2.31.18-4.6.51-6.86,1-.74.14-1.49.19-2.24.14-.65-.02-1.16-.57-1.14-1.22,0-.13.03-.27.08-.39.43-1.42,1.05-2.78,1.46-4.19.96-2.71,1.5-5.55,1.61-8.42,0-1.63.65-3.27,1-4.92.08-.43.13-.86.13-1.29,0-2.48.06-5,0-7.44,0-1.33-.34-2.65-.42-4,.04-.7.12-1.4.24-2.1.06-.85.05-1.71.05-2.56,0-.32-.09-.63-.09-.94v-7.11c0-2,.28-4.05.2-6.07-.07-3.48-.33-6.95-.77-10.4-.3-2-1.38-3.87-2-5.83-.22-.67-.3-1.38-.26-2.08.06-.9,1.14-1.33,2.14-1,1.81.72,3.76,1.02,5.7.87,1.19-.13,2.41,0,3.61,0,2.45-.13,4.89-.32,7.34-.47.72-.09,1.45-.07,2.16.05.47.18.86.54,1.07,1,.75,1.49,1.42,3,2.12,4.54.08.18.26.32.29.5.84,4,3.32,7.33,5,11,.66,1.45,1.6,2.76,2.4,4.14.16.27.29.56.41.85,1.34,3.23,2.7,6.45,4,9.7.36.89.44,1.89.74,2.82.55,1.66,2.24,2.68,3.44,1.84.75-.74,1.28-1.67,1.55-2.69,1-2.63,1.93-5.32,3-7.95.7-1.8,1.55-3.55,2.35-5.31.31-.67.77-1.27,1-2,.43-1.16.76-2.36,1.13-3.54.17-.56.25-1.14.47-1.67,1.23-2.84,2.5-5.65,3.71-8.5.21-.49.07-1.11.24-1.63.61-1.75,2.27-2.92,4.13-2.9,1.21.05,2.41.33,3.62.4.74.08,1.49,0,2.21-.2,1.23-.55,2.64-.55,3.87,0,1.37.69,2.72-.29,4.11-.36.5-.1.98-.25,1.44-.46.74-.34,1.62-.02,1.96.73.11.24.16.51.13.77.04,1.02-.13,2.05-.51,3-1,2-1.08,4.17-1.36,6.29-.56,3.65-.49,7.37.2,11,.01.08.01.16,0,.24-.54,3.88.37,7.71.48,11.56.08,3.11,0,6.24.28,9.33.35,3.88.13,7.76.48,11.62.23,2.52.89,5,1.25,7.51.2,1.71.75,3.35,1.64,4.82.51.86.29,1.96-.52,2.55-.64.61-1.59.75-2.38.35-.74-.24-1.5-.41-2.27-.49-1.84-.26-3.69-.41-5.55-.44-1.97.08-3.93.26-5.88.55-1.48.16-2.95.47-4.43.58s-2.07-.7-1.68-2.18c.7-2.68,1.28-5.4,2.13-8,.51-1.64.45-3.4-.17-5-.52-2.03-.54-4.15-.05-6.19,0,0,.05-.07.05-.11-.19-3.19.86-6.39-.09-9.57-.11-.47-.13-.95-.08-1.43.09-2.52-.57-5.1.64-7.55.13-.25-.26-1-.57-1.15-.53-.29-1.15-.35-1.73-.17-.73.47-1.31,1.15-1.66,1.95-.76,2-1.18,4.2-2,6.22-1.24,3.15-2.66,6.22-4,9.31-.3.67-.87,1.21-1.15,1.88-1.19,2.84-2.64,5.58-2.95,8.72-.04.31-.12.61-.24.89-1.25,2.87-2.52,5.72-3.79,8.58-.25.57-.46,1.15-.73,1.71-.43.86-.94,1.62-2.08,1.58s-1.59-1-2-1.89-.77-1.7-1.17-2.54l-3.23-6.71c-1-2.15-2.05-4.3-3.05-6.47-.59-1.27-1.11-2.57-1.7-3.84-1.12-2.4-2.27-4.79-3.41-7.18-.5-1.06-1-2.11-1.48-3.18-1.19-2.74-2.36-5.5-3.56-8.25-.24-.73-.58-1.42-1-2.07-.54-.67-1.52-.78-2.19-.25-.19.15-.35.35-.45.58-.26.65-.44,1.33-.54,2.03Z"/>
    <path class="cls-1" d="m139.32,116.44c.21,1.52.3,3.06.28,4.59-.11,2.11-.47,4.2-1.07,6.23-.79,2.42-1.79,4.76-3,7-.71,1.33-2,2.34-2.91,3.57-1.24,1.64-3.11,2.44-4.62,3.68-1.67,1.29-3.6,2.2-5.65,2.66-2.5.69-4.86,1.92-7.64,1.64-1.85-.18-3.77.32-5.66.39-1.2.08-2.42-.02-3.59-.3-3.06-.84-6-1.91-9-3-3.77-1.43-6-4.39-8.16-7.26-2.76-3.54-4.2-7.94-4.06-12.43.05-1.78-.28-3.58-.16-5.36.14-1.75.45-3.47.92-5.16.57-2.5,1.33-4.96,2.26-7.36,1.29-3.13,3.54-5.78,6.42-7.56,2-1.33,4.11-2.51,6.3-3.51,1.65-.67,3.28-.92,4.9-1.41,2.78-.84,5.54-.66,8.32-.86,3.36-.24,6.53.64,9.68,1.42,3.15.78,6,2.71,8.67,4.7,2.01,1.62,3.62,3.67,4.73,6,1.52,2.5,2.53,5.27,2.98,8.16.09,1.39.11,2.78.06,4.17Zm-17.06,2.49c-.21-2.21-.36-4.09-.59-6-.19-1.63-.46-3.24-.72-4.86-.05-.39-.16-.77-.31-1.13-.6-1.31-1.21-2.61-1.85-3.89-.25-.44-.54-.86-.87-1.25-1-1.32-2.6-1.6-4.06-2.18-2.4-1-4.38,0-6.36,1-2.62,1.23-3.27,4-4.25,6.34-.43,1.45-.77,2.93-1,4.43-.78,3-.7,5.89,1.75,8.25.18.15.32.35.38.58.12.38.12.79,0,1.17-.12.21-.65.17-1,.28s-1,.24-1.06.48c-.2.75-.27,1.52-.22,2.29.13,1.56.39,3.1.59,4.66-.02.35.01.71.1,1.05.8,1.66,1.63,3.29,2.47,4.93,1.24,2.41,3.58,3.3,5.94,3.69,2.44.34,4.87-.62,6.42-2.53.63-.83,1.2-1.71,1.71-2.63,1.26-1.94,2.39-3.9,1.63-6.37-.05-.47-.01-.95.12-1.4.39-2.42.8-4.81,1.18-6.91Z"/>
    <path class="cls-1" d="m284.78,120.72c.25-1.35.33-2.73.25-4.1-.56-3,.29-5.75,1.1-8.44.77-3.13,2.26-6.03,4.37-8.46,1.5-1.71,3.13-3.3,4.88-4.75,2.12-1.55,4.54-2.63,7.11-3.17,1.84-.51,3.71-.9,5.6-1.17,2.2-.16,4.41-.16,6.61,0,1.2.11,2.39.35,3.54.71,1.43.37,2.84.85,4.2,1.43,1.54.71,3.03,1.52,4.46,2.43.64.44,1.21.97,1.68,1.59.76.9,1.42,1.88,2.15,2.8,1.95,2.35,2.97,5.33,2.87,8.38,0,1.08.4,2.17.43,3.25.06,2-.54,2.78-2.36,3.47-.24.09-.64.22-.78.11-1.41-1.16-3.14-.65-4.69-.84-2.33-.18-4.67-.21-7-.07-.46,0-.91.24-1.37.28-.99.09-1.99.15-3,.18h-3.38c-2.35-.06-4.69-.14-7-.24-1.1-.15-2.14.55-2.42,1.62-.52,1.1-.67,2.34-.42,3.53.09.91.11,1.83.07,2.75.04.82.23,1.62.58,2.36,1.05,1.88,2.21,3.7,3.46,5.45,1.57,2.29,3.83,4.02,6.44,4.94.9.38,1.82.69,2.77.93,1.17.2,2.39.08,3.56.29,3.47.6,6.44-.68,9.34-2.32.4-.32.84-.57,1.32-.74.69-.13,1.61-.3,2.07,0s.45,1.32.32,2c-.22,1.1-.78,2.12-1,3.22-.64,2.58-2.62,3.66-4.82,4.53-.52.15-1.01.37-1.47.65-1.32,1.07-3,.91-4.46,1.27s-3.17,1-4.71.89c-3.08-.25-6.22.2-9.26-.91-1.85-.67-3.93-.66-5.83-1.21-1.19-.47-2.31-1.08-3.36-1.81-.34-.19-.6-.58-1-.67-1.76-.44-2.41-2.16-3.68-3.1-2.26-1.67-3.07-4.34-4.87-6.31-.77-.99-1.27-2.17-1.42-3.41-.4-2.5-.62-5.03-.88-7.34Zm25.89-23.74c-1.05.35-2.08.76-3.07,1.24-.71.52-1.38,1.09-2,1.7-1.48,1.06-2.45,2.69-2.7,4.49-.31,2.48,1.33,4.18,3.71,3.56,1.35-.31,2.74-.41,4.12-.3,2.13.13,3.69-1,5.13-2.23.45-.65.58-1.46.36-2.22-.3-1.58-.92-3.09-1.82-4.42-.83-.96-2.45-1.23-3.73-1.82h0Z"/>
    <path class="cls-1" d="m156.26,92.75h1.08c1.78.16,2.42,1,2.22,2.79-.1.9,0,1.94,1,2.18.77.13,1.55-.09,2.14-.6,2.05-2.1,4.61-3.63,7.42-4.46,1.78-.55,3.69-.47,5.41.23,2.1.74,3.76,2.38,4.55,4.46.39,1.14.26,2.39-.35,3.43-1.01,1.83-2.47,3.37-4.24,4.49-1.15.82-2.36.36-3.47-.09s-2.14-1.13-3.23-1.68c-2-1.16-4.57-.47-5.72,1.54-.02.03-.04.07-.06.1-.72,1.37-1.31,2.81-1.76,4.29-.07.64-.07,1.3,0,1.94-.13,2.2-.34,4.4-.44,6.6,0,.82.24,1.66.19,2.47-.24,4.14.84,8.19.89,12.28.06,1.94.26,3.88.6,5.79.21,1.33.71,2.61,1,3.92s-.29,2.16-1.66,2.14c-.83,0-1.65-.19-2.47-.21-.6,0-1.2.16-1.79.13-.94,0-1.86-.17-2.79-.24s-1.91-.14-2.86-.13c-.75.04-1.49.11-2.23.23-1.09.14-2.17.37-3.26.41-1.1.02-2.2-.07-3.29-.26-.26-.05-.58-.64-.61-1-.22-1.26.22-2.54,1.17-3.39.19-.16.19-.57.23-.87.24-1.71.52-3.42.67-5.14.07-.89-.18-1.8-.16-2.7,0-1.7.2-3.41.24-5.11s0-3.14,0-4.71v-1.56c0-1.19-.1-2.39-.16-3.58-.06-.35-.09-.71-.07-1.06.28-2.61.28-5.25,0-7.86-.12-3-.35-5.88-2-8.47-.13-.2-.23-.42-.34-.63-1.37-2.54-1.06-3.78,2.23-3.83,2.7,0,5.39-.9,8.08-1.37,1.28-.22,2.57-.37,3.85-.55v.08Z"/>
    <path d="m202.95,169.03c-3.72.26-6.8-1.1-9.78-3.32-2.52-1.88-3-4.26-3.15-7.05-.2-3.44,1.85-5.72,3.78-8.1.43-.53.87-1,1.3-1.54,1.34-1.92,3.86-2.62,6-1.67,1.52.58,3.1,1,4.66,1.5,2.28.68,4.62,1.17,6.83,2,2.77,1,4,2.77,4.4,5.87s-1.1,5.45-2.78,7.55c-1.13,1.42-3.05,2.3-4.74,3.18-1.95,1.2-4.23,1.75-6.52,1.58Z"/>
    <path d="m203.13,117.95c-1.74.05-3.29-1.09-3.75-2.77-1.09-2.81-.93-5.78-1.46-8.64-.22-1.55-.02-3.13.58-4.58.32-.68.79-1.27,1.37-1.75.56-.55,1.26-1,1.83-1.48.56-.71,1.55-.93,2.35-.51,1.32.57,2.53,1.35,3.6,2.31.74,1.01,1.19,2.21,1.29,3.46.48,3.33.78,6.68-.39,10-.88,2.27-2.99,3.81-5.42,3.96Z"/>
    <path d="m122.26,118.93c-.35,2.1-.76,4.49-1.15,6.89-.13.45-.17.93-.12,1.4.76,2.47-.37,4.43-1.63,6.37-.51.92-1.08,1.8-1.71,2.63-1.55,1.91-3.98,2.87-6.42,2.53-2.36-.39-4.7-1.28-5.94-3.69-.84-1.64-1.67-3.27-2.47-4.93-.09-.34-.12-.7-.1-1.05-.2-1.56-.46-3.1-.59-4.66-.05-.77.02-1.54.22-2.29.07-.24.68-.34,1.06-.48s.86-.07,1-.28c.12-.38.12-.79,0-1.17-.06-.23-.2-.43-.38-.58-2.45-2.36-2.53-5.2-1.75-8.25.23-1.5.57-2.98,1-4.43,1-2.37,1.63-5.11,4.25-6.34,2-.94,4-1.91,6.36-1,1.46.58,3,.86,4.06,2.18.33.39.62.81.87,1.25.64,1.28,1.25,2.58,1.85,3.89.15.36.26.74.31,1.13.26,1.62.53,3.23.72,4.86.17,1.93.32,3.81.56,6.02Z"/>
    <path d="m310.67,96.98c1.28.59,2.9.86,3.7,1.82.9,1.33,1.52,2.84,1.82,4.42.22.76.09,1.57-.36,2.22-1.44,1.24-3,2.36-5.13,2.23-1.38-.11-2.77-.01-4.12.3-2.38.62-4-1.08-3.71-3.56.25-1.8,1.22-3.43,2.7-4.49.62-.61,1.29-1.18,2-1.7,1-.48,2.04-.9,3.1-1.24Z"/>
    <path class="cls-1" d="m122.43,42.9c.45-.79.95-1.54,1.5-2.26,1.3-1.53,2.43-3.2,4.33-4.2,1.36-.58,2.55-1.51,3.44-2.69.47-.53,1.1-.91,1.79-1.07,2.23-.72,4.5-1.33,6.74-2,1.54-.55,3.19-.74,4.81-.55,1.47.18,2.96.2,4.43.06,1.84-.05,3.66.41,5.25,1.33.52.29,1.12.37,1.7.23,3.82-.93,7.71-.59,11.58-.51,1.71.13,3.26,1.04,4.21,2.47.3.37.57.77.82,1.18.21.35.38.37.6,0,.03-.03.05-.06.06-.1,1.37-2.78,3.82-3.53,6.66-3.58.88,0,1.75-.18,2.63-.19s1.66.06,2.49.12c.59,0,1.18.15,1.77.17,3.06.14,6.17,2.78,5.87,5.89,0,.54.06,1.07.18,1.59.57-.14,1.13-.36,1.65-.63,1.69-1.12,3.32-2.31,5-3.48.31-.25.64-.47,1-.65,2.22-1.06,4.53-1.92,6.91-2.55.78-.18,1.56-.34,2.32-.56,2.3-.53,4.7-.53,7,0,2.12.34,4.27.44,6.4.7,1.07.07,2.12.27,3.14.6,2.89,1.12,5.74,2.34,8,4.57.3.25.64.46,1,.62,1.48.58,2.6,1.84,3,3.38.05.23.15.45.29.64.76,1,1.55,1.9,2.33,2.86.6.75.75.78,1.3,0,.78-1.11,1.41-2.32,2.25-3.37.93-1.34,2.12-2.48,3.51-3.34.25-.13.46-.32.6-.56.74-1.54,2.22-2.59,3.91-2.79.47-.08.94-.22,1.38-.41,2.13-.92,4.42-.91,6.67-1.15,3.17-.34,6.3-1,9.47-1.24,2.15-.09,4.3-.01,6.44.24.9.17,1.78.46,2.6.86.66.26,1.27.65,1.93.92,2.97,1.17,5.61,3.05,7.69,5.48.22.23.46.44.71.63l1.7,1.61c.09-1.18.25-2.49.29-3.8.02-1.36.79-2.6,2-3.23,1.67-1.04,3.62-1.51,5.58-1.33,1.67.08,3.37-.11,5,.06,1.55.14,3.07.48,4.53,1,1.45.53,2,2,2.48,3.36.57,1.57.74,3.26.52,4.92-.34,2.89-.39,5.8-.49,8.71-.11,1.67-.09,3.34.05,5,.38,3.2-.63,6.33-.34,9.52.13,1.47.06,1.51,1.6,1.51h4.8c1.17-.08,2.32.34,3.16,1.16.05.07.11.12.18.16,2.56,1.29,2.58,3.73,2.65,6.08.06,1.67-.13,3.35-.12,5-.1,1.68-.69,3.29-1.68,4.64-.23.37-.59.66-1,.81-1.25.39-2.54.65-3.85.78-2.11.13-4.23.09-6.35,0-1.78-.11-3.57-.03-5.34.21-.67,0-1.34-.05-2-.15-1.43,0-2.86.18-4.29.15-1.7,0-3.42-.15-5.11-.36-.96-.17-1.74-.88-2-1.83-.43-1.2-.91-2.38-1.36-3.57-.35-.9-.38-1.9-.06-2.81.21-.59.33-1.2.5-1.82-.64.56-1.24,1.05-1.81,1.58-1.62,1.53-3.21,3.08-4.83,4.6-.3.26-.64.47-1,.63-1.53.66-3.07,1.3-4.61,1.94-2.37.94-4.88,1.51-7.42,1.7-1.07.09-2.13.45-3.18.43-2.91-.06-5.8-.46-8.62-1.2-1.98-.6-3.89-1.4-5.7-2.39-.64-.31-1.31-.55-2-.72-1.12-.22-2.06-.96-2.53-2-.26-.67-.76-1.22-1.41-1.53-.44-.21-.74-.71-1.12-1.05-.63-.64-1.3-1.24-2-1.8-.72-.56-1.24-1.35-1.48-2.23-.27-.73-.67-1.4-1.16-2-.38-.5-.85-.29-1,.26-.28,1.29-1.13,2.39-2.31,3-1,.68-1.61,2-2.55,2.83-1.44,1.3-2.96,2.52-4.55,3.64-1.65,1.18-3.63,1.72-5.45,2.55-3.47,1.6-7.09,1.85-10.73,1.92-2.63.08-5.25-.17-7.82-.74-2.99-.54-5.81-1.79-8.23-3.63-1.12-.94-2.36-1.74-3.5-2.67-.77-.62-1.47-1.33-2.19-2-.44-.43-.85-.9-1.46-1.56v3.37c.16,1.8-.72,3.53-2.27,4.45-1.53,1.1-3.37,1.69-5.25,1.69-2.47-.12-5,0-7.43,0s-3.7-1.46-4.88-3.19c-.5-.75-.56-.82-1.11-.08-1.9,2.54-4.46,3.06-7.45,2.66-1.39-.15-2.78-.15-4.17,0-1.68.16-3.36-.19-4.84-1-.48-.26-1.06-.3-1.57-.1-4.55,1.19-9.11,1.81-13.81.56-2.47-.78-4.88-1.72-7.22-2.83-1.29-.71-2.49-1.58-3.57-2.58-.64-.48-1.24-1-1.89-1.48s-1-.17-1.18.45c-.65,1.91-1.27,3.83-1.94,5.73-.16.45-.39.87-.7,1.23-1,1.23-2.09,2.39-3.27,3.46-1.43,1.08-2.92,2.08-4.46,3-.13.09-.31.1-.44.19-1.94,1.1-4.07,1.82-6.28,2.13-2.76.66-5.64.73-8.43.2-3.35-.32-6.52-1.67-9.08-3.85-.64-.39-1.25-.84-1.82-1.33-1.47-1.4-2.9-2.85-4.3-4.32-.32-.35-.55-.78-.66-1.24-.72-2.61-1.3-5.26-1.72-7.93-.46-3.93,1.09-5.66,4.95-6.6.65-.21,1.32-.36,2-.44,3.28-.06,6.52.68,9.44,2.16,1.11.56,1.78,1.71,1.71,2.95-.03,1.36.84,2.58,2.13,3,1.41.7,3.11.41,4.21-.71,1.13-1.39,1.06-3.4-.17-4.7-1.5-1.29-3.15-2.4-4.75-3.58-1.15-.86-2.32-1.69-3.48-2.54-1.42-.82-2.67-1.9-3.7-3.18-1.87-2.06-3.16-4.58-3.76-7.3-.82-3.31-.18-6.6.83-9.77.68-2.6,2.32-4.84,4.59-6.28,1-.61,1.82-1.57,2.86-2.14,2.16-1.18,4.51-1.97,6.94-2.36,3.17-.42,6.37-.53,9.56-.35,2.3.05,4.61.63,5.75,3,.46,1.1.73,2.26.79,3.45.13,1.38,0,2.79,0,4.18l.09.02Zm118,15.27c.16-3.7-1-6.22-1.73-8.81-.22-.85-.55-1.67-1-2.43-.99-1.59-2.09-3.11-3.28-4.55-2.94-3.59-7.09-5.97-11.67-6.7-2.45-.37-4.92-.56-7.36-1-1.58-.28-3.2-.2-4.75.22-1.48.43-3,.78-4.43,1.35-2.7.98-5.19,2.46-7.33,4.37-1.35,1.25-3,2.3-3.77,4-1.15,2.35-2.89,4.34-3.55,7-.56,2.08-.9,4.21-1,6.36,0,3.29.72,6.53,2.13,9.5.44,1.16,1.01,2.26,1.68,3.3,1.99,2.75,4.47,5.12,7.3,7,1.23.87,2.58,1.56,4,2.07,2.64.93,5.39,1.5,8.18,1.69,2.47.2,4.95,0,7.36-.59,3.85-1.06,7.61-2.47,10.48-5.47.22-.23.54-.36.75-.59,1.34-1.3,2.6-2.68,3.77-4.14.98-1.5,1.84-3.09,2.56-4.73.52-.94.9-1.95,1.12-3,.37-1.91.42-3.84.51-4.85h.03Zm52.43-.42c.01-.64-.02-1.28-.11-1.92-.41-2-.57-4.19-1.43-6-1.4-2.86-3.19-5.52-5.32-7.89-2.73-3.13-6.32-4.62-10.08-5.92-.23-.07-.46-.12-.7-.13-3.1-.39-6.24-.34-9.32.16-2.56.43-5.17.56-7.71,1.05-1.58.22-3.1.79-4.44,1.65-2.15,1.45-4.1,3.19-5.79,5.15-1.66,2.05-2.95,4.38-3.79,6.88-1.86,5.39-1.6,11.28.71,16.49,1.11,2.54,2.34,5.1,4.58,6.94.92.76,1.89,1.48,2.76,2.3,3.24,2.89,7.31,4.69,11.63,5.13,4.78.61,9.64.04,14.14-1.68,2.24-.76,4.27-2.03,5.92-3.72,1.52-1.46,2.96-3,4.31-4.62,1.29-1.56,2.36-3.3,3.15-5.17,1.05-2.78,1.55-5.73,1.46-8.7h.03Zm-124.75,13.62h-.07c.05-.63.11-1.27.15-1.91s0-1.28.06-1.92c0-1,0-2.08.2-3.11,0-1.16.96-2.09,2.12-2.08.03,0,.06,0,.09,0,1.2-.11,2.4-.13,3.6-.08,1.14-.11,2.15.73,2.26,1.86.02.18.01.35-.02.53,0,1.59-.1,3.19-.17,4.79-.12,2.79-.28,5.59-.36,8.38,0,1.52.56,2.17,2.06,2.22,2.23.09,4.47.15,6.71,0s3.11-1.2,3.08-3.49c0-3.31,0-6.63.07-9.94.09-3.56.32-7.1.44-10.66.14-4.3.23-8.61.36-12.92.05-1.72.18-3.43.2-5.15,0-1.4-.37-1.79-1.69-2.23-2.2-.62-4.5-.79-6.77-.5-2.42.18-3.22,1-3.3,3.48v1.07c0,3.4,0,6.79-.06,10.18-.03,1.1-.9,2-2,2.08-1.4.08-2.8.02-4.18-.18-1.76-.28-2.27-1-2.25-2.81v-11.86c0-1.26-.43-1.75-1.63-1.78-2.75-.06-5.51-.06-8.27,0-1,0-1.36.49-1.41,1.44s-.08,2.16-.11,3.23c-.07,2.72-.19,5.43-.21,8.15.01,1.46-.68,2.84-1.85,3.71-.74.53-1.05,1.48-.78,2.35.32,1.72.76,3.42,1.3,5.09.79,1.97,1.13,4.09,1,6.21,0,.68-.17,1.35-.18,2,0,3.23-.05,6.46-.07,9.69,0,1.65.61,2.41,2.24,2.46,2.27.07,4.55.07,6.83,0,1.4,0,2.53-1.15,2.53-2.55,0-.07,0-.13,0-.2.06-1.79.09-3.65.09-5.55Zm-55.85-35.54h-1c-2.15.11-4.29.34-6.41.7-2.22.42-4.25,1.52-5.8,3.16-.44.49-1.14.76-1.56,1.26-1.41,1.79-2.34,3.91-2.7,6.16-.92,4.13.36,8.43,3.38,11.39,1.73,1.59,3.6,3.02,5.59,4.27,1.99,1.25,3.87,2.67,5.61,4.26,2.78,2.79,2.78,7.3,0,10.08-.31.31-.64.58-.99.83-3.15,2-8.11,1.36-10.25-1.65-.63-1.01-1.15-2.08-1.54-3.21-.28-.7-.57-1.34-1.36-1.53-2.42-.73-4.98-.9-7.47-.49-1.11.24-1.55.62-1.61,1.76-.04.91.01,1.83.17,2.73.34,2.84,1.61,5.48,3.61,7.52,1.12,1.07,2.43,1.93,3.62,2.92,3,2.46,6.49,3.17,10.18,3.17,2.38-.06,4.74-.48,7-1.25,2.15-.63,4.13-1.73,5.81-3.21,1.5-1.48,2.79-3.16,3.82-5,.69-1.35,1.21-2.78,1.55-4.25.82-2.95.63-6.09-.54-8.92-.8-1.86-1.72-3.67-2.76-5.41-.22-.39-.51-.73-.87-1-1.06-.83-2.15-1.62-3.24-2.42-1.76-1.31-3.51-2.62-5.29-3.89-.61-.44-1.33-.74-1.94-1.18-1.63-1.36-1.84-3.78-.48-5.41.25-.3.55-.56.88-.77,1.33-.67,2.81-.97,4.29-.88h4.67c1.55,0,1.9-.58,1.84-2v-1.43c0-1.4.06-2.8-.05-4.19s-.52-1.7-1.8-1.84c-1.43-.17-2.91-.2-4.35-.28Zm41.49,3.68h-.07v-3.24c.06-.88-.58-1.66-1.46-1.76-3.5-.8-7.13-.92-10.68-.37-.99.14-1.95.41-2.87.8-1.52.61-2.99,1.31-4.42,2.1-1.42.8-2.68,1.87-4.1,2.65-1.05.65-1.95,1.52-2.64,2.54-.43.57-.78,1.21-1.21,1.78-1.9,2.55-3.58,5.2-4,8.45-.04.2-.1.39-.18.57-1.26,3.5-.12,6.88.65,10.23.27,1.68,1.05,3.24,2.23,4.47.44.61.78,1.28,1,2,.12.34.29.65.51.93,1.29,1.31,2.55,2.65,3.93,3.85,2.29,1.87,4.91,3.32,7.71,4.27,1.85.84,3.86,1.31,5.89,1.37,2.36.04,4.71-.22,7-.76,1.61-.45,2-1.06,2.1-2.72.07-2,.13-3.91.22-5.86.07-1.65-.36-2.07-2-1.93-1.51.13-3,.34-4.53.38-2.12.16-4.25-.25-6.16-1.2-2.73-1.34-4.96-3.53-6.35-6.24-2.22-4.79-1.05-10.48,2.89-14,2.74-2.43,6.36-3.61,10-3.27,1.46.13,2.93.19,4.4.29,1.29.1,1.68-.17,1.82-1.44s.18-2.57.28-3.89h.04Zm153.51,9.6h.21v-9.11c0-2.11-.71-2.84-2.79-2.93s-4.32-.09-6.47-.06c-1.22-.17-2.35.69-2.51,1.91-.03.21-.03.42,0,.62,0,1.6.16,3.19.15,4.79,0,4.19-.18,8.39-.17,12.58,0,5.24-.17,10.47-.63,15.69-.19,2.34-.24,4.7-.15,7.05.05,1.6.46,1.86,2.1,2,.24.01.48.01.72,0,3.16-.06,6.31-.15,9.46-.2,1.12,0,2.24,0,3.35.06,2,0,4.08.07,6.11,0,.95.02,1.79-.62,2-1.55.8-2.39.5-4.83.47-7.25-.02-.67-.49-1.24-1.14-1.39-.53-.16-1.08-.25-1.64-.24-2.24,0-4.48.11-6.71.16s-3-.71-2.93-2.88c.18-4.67.4-9.34.56-14,.07-1.73.01-3.49.01-5.25Zm-160.21-.84v.1h-2.79c-1.01,0-1.98.38-2.72,1.06-.75.7-1.45,1.47-2.2,2.16-.41.37-1.08.56-1.31,1-.86,1.64-1.83,3.33-.71,5.27.16.28.25.59.26.91-.08,3.1,2.45,4.24,4.35,5.85,1.92.29,3.75,1.14,5.75.88,1.38-.18,2.76-.33,4.13-.57.34-.12.59-.41.66-.76.03-.95-.11-1.9-.4-2.8-.74-1.97-1.26-4.01-1.53-6.1-.36-2.18-.25-4.21,1.17-6,.37-.47.21-.62-.28-.66l-4.38-.34Zm-34.18,1.36v-.06h-2c-.22.03-.44.08-.66.15.14.17.3.32.47.46,1.17.81,2.36,1.58,3.52,2.41,1,.71,2,1.46,3,2.22.28.22.51.48.65-.09.38-1.62.74-3.25,1.14-4.86.14-.57,0-.66-.57-.6-1.91.2-3.73.28-5.55.4v-.03Z"/>
    <path d="m240.4,58.17c-.09,1-.16,2.94-.47,4.82-.22,1.05-.6,2.06-1.12,3-.72,1.64-1.58,3.23-2.56,4.73-1.17,1.46-2.43,2.84-3.77,4.14-.21.23-.53.36-.75.59-2.87,3-6.63,4.41-10.48,5.47-2.41.59-4.89.79-7.36.59-2.79-.19-5.54-.76-8.18-1.69-1.42-.51-2.77-1.2-4-2.07-2.83-1.88-5.31-4.25-7.3-7-.67-1.04-1.24-2.14-1.68-3.3-1.41-2.97-2.14-6.21-2.13-9.5.1-2.15.44-4.28,1-6.36.66-2.66,2.4-4.65,3.55-7,.81-1.66,2.42-2.71,3.77-4,2.14-1.91,4.63-3.39,7.33-4.37,1.46-.57,2.95-.92,4.43-1.35,1.55-.42,3.17-.5,4.75-.22,2.44.4,4.91.59,7.36,1,4.58.73,8.73,3.11,11.67,6.7,1.19,1.44,2.29,2.96,3.28,4.55.45.76.78,1.58,1,2.43.7,2.62,1.82,5.14,1.66,8.84Zm-11.95-.54c.45-2.11-.54-3.91-1.5-5.64-1.04-1.99-2.67-3.6-4.66-4.63-1.87-.79-3.86-1.29-5.88-1.48-.79-.11-1.59-.09-2.38.05-2.79.31-5.43,1.4-7.64,3.13-1.92,1.39-3.25,3.45-3.73,5.77-.23,1.34-.32,2.7-.29,4.06.07,2.08.24,4.17,1.92,5.74.22.21.3.56.49.81.34.49.73.93,1.17,1.33,2.16,1.73,4.75,2.85,7.5,3.23,2.43.39,4.91.11,7.19-.81.79-.37,1.55-.82,2.25-1.34,1.73-1.01,3.17-2.46,4.18-4.2.9-1.84,1.74-3.81,1.38-6.02Z"/>
    <path d="m292.83,57.75c.08,2.96-.43,5.91-1.49,8.68-.79,1.87-1.86,3.61-3.15,5.17-1.35,1.62-2.79,3.16-4.31,4.62-1.65,1.69-3.68,2.96-5.92,3.72-4.5,1.72-9.36,2.29-14.14,1.68-4.32-.44-8.39-2.24-11.63-5.13-.87-.82-1.84-1.54-2.76-2.3-2.24-1.84-3.47-4.4-4.58-6.94-2.31-5.21-2.57-11.1-.71-16.49.84-2.5,2.13-4.83,3.79-6.88,1.69-1.96,3.64-3.7,5.79-5.15,1.34-.86,2.86-1.43,4.44-1.65,2.54-.49,5.15-.62,7.71-1.05,3.08-.5,6.22-.55,9.32-.16.24.01.47.06.7.13,3.76,1.3,7.35,2.79,10.08,5.92,2.13,2.37,3.92,5.03,5.32,7.89.86,1.83,1,4,1.43,6,.09.64.12,1.29.11,1.94Zm-25.43,12.9c5.5-.41,8.06-1.66,11.16-5.09.58-.6,1.07-1.27,1.46-2,1.48-3.09,1-6.3.39-9.49-.32-1.66-1.54-2.76-2.62-3.93-1.64-1.82-3.79-3.1-6.17-3.69-2.3-.59-4.71-.57-7,.07-2.53.73-4.85,2.04-6.78,3.84-2.92,2.58-3.26,6.14-3.08,9.78.02.4.11.79.27,1.16,1.22,2.74,2.67,5.25,5.26,7,2.13,1.38,4.58,2.19,7.11,2.35Z"/>
    <path d="m168.11,71.37v5.64c.12,1.4-.92,2.63-2.32,2.74-.07,0-.13,0-.2,0-2.28.05-4.56.05-6.83,0-1.63-.05-2.25-.81-2.24-2.46,0-3.23,0-6.46.07-9.69,0-.68.13-1.35.18-2,.13-2.12-.21-4.24-1-6.21-.54-1.67-.98-3.37-1.3-5.09-.27-.87.04-1.82.78-2.35,1.17-.87,1.86-2.25,1.85-3.71,0-2.72.14-5.43.21-8.15,0-1.07,0-2.15.11-3.23s.46-1.43,1.41-1.44h8.27c1.2,0,1.62.52,1.63,1.78v11.86c0,1.77.49,2.53,2.25,2.81,1.38.2,2.78.26,4.18.18,1.1-.08,1.97-.98,2-2.08,0-3.39,0-6.78.06-10.18v-1.07c.08-2.44.88-3.3,3.3-3.48,2.27-.29,4.57-.12,6.77.5,1.32.44,1.71.83,1.69,2.23,0,1.72-.15,3.43-.2,5.15-.13,4.31-.22,8.62-.36,12.92-.12,3.56-.35,7.1-.44,10.66-.09,3.31-.11,6.63-.07,9.94,0,2.29-.78,3.4-3.08,3.49s-4.48,0-6.71,0c-1.5-.05-2.09-.7-2.06-2.22.08-2.79.24-5.59.36-8.38.07-1.6.16-3.2.17-4.79.24-1.12-.47-2.22-1.59-2.46-.24-.05-.49-.06-.74-.02-1.2-.06-2.4-.03-3.59.07-1.16-.06-2.15.83-2.21,1.99,0,.03,0,.06,0,.09-.15,1-.15,2.08-.2,3.11,0,.64,0,1.28-.06,1.92s-.1,1.28-.15,1.91h.06Z"/>
    <path d="m112.26,35.83c1.48.08,3,.11,4.42.27,1.28.14,1.69.55,1.8,1.84s0,2.79.05,4.19v1.43c.06,1.45-.36,2-1.84,2s-3.11.05-4.67,0c-1.48-.09-2.96.21-4.29.88-1.79,1.14-2.31,3.52-1.17,5.3.21.33.47.63.77.88.61.44,1.33.74,1.94,1.18,1.78,1.27,3.53,2.58,5.29,3.89,1.09.8,2.18,1.59,3.24,2.42.36.27.65.61.87,1,1.04,1.74,1.96,3.55,2.76,5.41,1.17,2.83,1.36,5.97.54,8.92-.34,1.47-.86,2.9-1.55,4.25-1.03,1.84-2.32,3.52-3.82,5-1.68,1.48-3.66,2.58-5.81,3.21-2.26.77-4.62,1.19-7,1.25-3.69,0-7.22-.71-10.18-3.17-1.19-1-2.5-1.85-3.62-2.92-2-2.04-3.27-4.68-3.61-7.52-.16-.9-.21-1.82-.17-2.73.06-1.14.5-1.52,1.61-1.76,2.49-.41,5.05-.24,7.47.49.79.19,1.08.83,1.36,1.53.39,1.13.91,2.2,1.54,3.21,2.14,3,7.1,3.62,10.25,1.65,3.24-2.23,4.06-6.67,1.83-9.92-.24-.36-.52-.69-.83-.99-1.74-1.59-3.62-3.01-5.61-4.26-1.99-1.25-3.86-2.68-5.59-4.27-3.02-2.96-4.3-7.26-3.38-11.39.36-2.25,1.29-4.37,2.7-6.16.42-.5,1.12-.77,1.56-1.26,1.55-1.64,3.58-2.74,5.8-3.16,2.12-.36,4.26-.59,6.41-.7h1-.07Z"/>
    <path d="m153.71,39.51c-.1,1.32-.16,2.63-.31,3.94s-.53,1.54-1.82,1.44c-1.47-.1-2.94-.16-4.4-.29-3.64-.34-7.26.84-10,3.27-3.94,3.52-5.11,9.21-2.89,14,1.39,2.71,3.62,4.9,6.35,6.24,1.91.95,4.04,1.36,6.16,1.2,1.52,0,3-.25,4.53-.38,1.68-.14,2.11.28,2,1.93-.09,1.95-.15,3.9-.22,5.86-.06,1.66-.49,2.27-2.1,2.72-2.29.54-4.64.8-7,.76-2.03-.06-4.04-.53-5.89-1.37-2.8-.95-5.42-2.4-7.71-4.27-1.38-1.2-2.64-2.54-3.93-3.85-.22-.28-.39-.59-.51-.93-.22-.72-.56-1.39-1-2-1.18-1.23-1.96-2.79-2.23-4.47-.77-3.35-1.91-6.73-.65-10.23.08-.18.14-.37.18-.57.41-3.25,2.09-5.9,4-8.45.43-.57.78-1.21,1.21-1.78.69-1.02,1.59-1.89,2.64-2.54,1.42-.78,2.68-1.85,4.1-2.65,1.43-.79,2.9-1.49,4.42-2.1.92-.39,1.88-.66,2.87-.8,3.55-.55,7.18-.43,10.68.37.88.1,1.52.88,1.46,1.76v3.23l.06-.04Z"/>
    <path d="m307.26,49.11v5.27c-.16,4.67-.38,9.34-.56,14-.08,2.17.7,2.93,2.93,2.88s4.47-.13,6.71-.16c.56,0,1.11.08,1.64.24.65.15,1.12.72,1.14,1.39,0,2.42.33,4.86-.47,7.25-.21.93-1.05,1.57-2,1.55h-6.11c-1.11,0-2.23-.08-3.35-.06-3.15,0-6.3.14-9.46.2-.24.01-.48.01-.72,0-1.64-.1-2-.36-2.1-2-.09-2.35-.04-4.71.15-7.05.46-5.22.65-10.45.63-15.69,0-4.19.14-8.39.17-12.58,0-1.6-.16-3.19-.15-4.79-.18-1.22.67-2.35,1.89-2.53.21-.03.42-.03.62,0,2.15,0,4.32,0,6.47.06s2.76.82,2.79,2.93v9.11l-.22-.02Z"/>
    <path class="cls-1" d="m228.45,57.63c.36,2.21-.48,4.18-1.38,6-1.01,1.74-2.45,3.19-4.18,4.2-.7.52-1.46.97-2.25,1.34-2.28.92-4.76,1.2-7.19.81-2.75-.38-5.34-1.5-7.5-3.23-.44-.4-.83-.84-1.17-1.33-.19-.25-.27-.6-.49-.81-1.68-1.57-1.85-3.66-1.92-5.74-.03-1.36.06-2.72.29-4.06.48-2.32,1.81-4.38,3.73-5.77,2.21-1.73,4.85-2.82,7.64-3.13.79-.14,1.59-.16,2.38-.05,2.02.19,4.01.69,5.88,1.48,1.99,1.03,3.62,2.64,4.66,4.63.96,1.75,1.95,3.55,1.5,5.66Zm-4.36-.29c.41-1.44-.65-2.8-1.47-4.19-.39-.69-.96-1.26-1.66-1.63-3-1.4-6-2.24-9.37-.58-1.51.73-2.87,1.75-4,3-.85.93-.61,2.1-.89,3.16-.79,3,.89,5,2.73,6.83,1.41,1.38,3.44,1.74,5.39,2.07s3.55-.59,5.15-1.48c2.69-1.35,4.31-4.18,4.12-7.18h0Z"/>
    <path class="cls-1" d="m267.4,70.65c-2.52-.17-4.95-.97-7.07-2.34-2.59-1.79-4-4.3-5.26-7-.16-.37-.25-.76-.27-1.16-.18-3.64.16-7.2,3.08-9.78,1.93-1.8,4.25-3.11,6.78-3.84,2.29-.64,4.7-.66,7-.07,2.38.59,4.53,1.87,6.17,3.69,1.08,1.17,2.3,2.27,2.62,3.93.64,3.19,1.09,6.4-.39,9.49-.39.73-.88,1.4-1.46,2-3.14,3.42-5.7,4.7-11.2,5.08Zm9.27-12.18c-.07-.7-.1-1.42-.24-2.12-.69-3.37-3.24-4.85-6.18-5.76-4-1.22-6.91,1.16-9.84,3.31-.23.22-.41.49-.53.79-1.28,2.6-.34,7,1.89,8.87.54.52,1.12,1,1.73,1.43,2.18,1.42,4.91,1.69,7.32.73,3.33-1.21,5.76-3.24,5.85-7.25h0Z"/>
    <path class="cls-1" d="m77.43,26.4c0-1.41-.15-2.63-.09-3.84.03-.53.28-1.01.69-1.34,1.94-1,1.43-2.78,1.55-4.31.14-1.75,0-3.52,0-5.11-1.33.09-2.65.27-4,.25-1.22.13-2.32-.76-2.45-1.98-.02-.17-.02-.34,0-.51,0-1.63,0-3.27.15-4.9s1-2.57,2.82-2.55c3.27,0,6.55,0,9.82.2,2.24.07,4.46-.51,6.38-1.66,1.25-.68,2.44-1,3.68-.07s1.28,2.19,1.15,3.57c-.19,1.81-.26,3.62-.39,5.57,3.38-.92,6-.09,8,2.42,1.06-.63,2.06-1.27,3.11-1.83,2.85-1.53,8-1.24,10.38,1.93.69,1.14,1.21,2.38,1.56,3.67.13.36,0,.81.1,1.19.38,1.12,0,2.37-.94,3.09,0,.09.03.18.06.27,1.73,2.78,1,4.84-2.35,6.17-1.01.21-1.68,1.18-1.5,2.2.1,2.6-3.12,4.61-5.91,4-2.07-.43-4.22-.25-6.19.51-1.7.76-3.53,1.2-5.39,1.29-6.34-.05-12.68.13-19,.21-2.14,0-2.88-.75-2.87-2.89v-2.76c-.22-1.21.47-2.39,1.63-2.79Zm18.83-1.07c0-1.17.61-2.45-1.05-3.11-.25-.1-.36-.77-.37-1.19v-3.79c-.05-1.05.77-1.94,1.82-1.98.1,0,.2,0,.3.01,1.48,0,2,.34,2.14,1.79.07.75.09,1.51.06,2.27,0,1.27,0,2.49-1.12,3.49-.4.35-.23,1.41-.22,2.15,0,.14.47.4.73.4,1.75.05,3.5.09,5.25,0,.45,0,1.19-.38,1.25-.69.12-.69.47-1.55-.55-2.1-.43-.31-.71-.79-.75-1.32-.09-1.95,0-3.92-.07-5.87,0-1.77-1.21-3.32-2.93-3.75-1.47-.39-3.03-.2-4.37.52-1.44.63-1.59.52-1.55-1,.07-2.55.17-5.09.22-7.64,0-.45-.09-1.19-.32-1.27-.48-.08-.98,0-1.4.26-2.12,1-4.19,1.94-6.67,1.78-3.35-.21-6.71-.15-10.06-.2-.6,0-1.23-.06-1.25.86,0,1.31-.13,2.62-.13,3.94,0,.35.2,1,.39,1,.7.13,1.42.13,2.12,0,.25-.06.36-.71.56-1.07s.37-.9.7-1.08c.57-.36,1.24-.54,1.92-.53.28,0,.66.93.66,1.44.06,3.6.07,7.19,0,10.79,0,1.21-.05,2.56-1.73,2.85-.16,0-.33.34-.39.55-.55,2,.06,2.61,2.09,2.48s3.85-.07,5.77-.07l8.95.08Zm21.76-2.32c-.45-1.92-1.48-1.71-2.66-1.13-.39.2-.81.33-1.25.36-1.24,0-2.57.41-3.58-.72-.48-.52-.56-1,.25-1.25,2.1-.55,4.22-1,6.32-1.59.33-.07.61-.27.79-.55.49-1.55-.6-4.41-2-5.35-2.66-1.89-6.26-1.74-8.76.36-2.56,2-3,5.4-2,8.37.88,2.66,3,3.87,5.69,4.16,2.69.44,5.42-.57,7.18-2.66h.02Zm-5.19,5.79c-.4-.09-.8-.16-1.2-.2l-8.26-.07c-7.82,0-15.63-.09-23.45-.11-2.26,0-1.94-.45-1.95,2.46,0,1.74,0,1.71,1.73,1.68,3.78-.07,7.56-.11,11.33-.15,1.68,0,3.36.11,5-.05,1.85-.18,3.68-.6,5.51-.94.69-.19,1.39-.34,2.09-.45,2.27-.19,4.54-.34,6.81-.43,1.08,0,2.04-.71,2.37-1.74h.02Z"/>
    <path d="m96.26,25.33h-8.92c-1.92,0-3.85-.06-5.77.07s-2.64-.51-2.09-2.48c.06-.21.23-.52.39-.55,1.68-.29,1.71-1.64,1.73-2.85.06-3.6.05-7.19,0-10.79,0-.51-.38-1.41-.66-1.44-.68-.01-1.35.17-1.92.53-.33.18-.49.7-.7,1.08s-.31,1-.56,1.07c-.7.13-1.42.13-2.12,0-.19,0-.39-.66-.39-1,0-1.32.11-2.63.13-3.94,0-.92.65-.87,1.25-.86,3.35.05,6.71,0,10.06.2,2.48.16,4.55-.77,6.67-1.78.42-.25.92-.34,1.4-.26.23.08.33.82.32,1.27,0,2.55-.15,5.09-.22,7.64,0,1.52.11,1.63,1.55,1,1.34-.72,2.9-.91,4.37-.52,1.72.43,2.93,1.98,2.93,3.75.05,1.95,0,3.92.07,5.87.04.53.32,1.01.75,1.32,1,.55.67,1.41.55,2.1-.06.31-.8.67-1.25.69-1.75.06-3.5,0-5.25,0-.26,0-.73-.26-.73-.4,0-.74-.18-1.8.22-2.15,1.16-1,1.11-2.22,1.12-3.49.03-.76,0-1.52-.06-2.27-.16-1.45-.66-1.84-2.14-1.79-1.04-.12-1.98.63-2.1,1.68,0,.09-.01.17-.01.26-.06,1.26-.07,2.53,0,3.79,0,.42.12,1.09.37,1.19,1.6.61,1.01,1.89,1.01,3.06Zm-9.54-11.06h-.06v5.87c0,1.11,1.35,2.57,2.36,2.44,1.33-.17,1.16-1.31,1.24-2.24,0-.04,0-.08,0-.12,0-2.56.1-5.12,0-7.67-.08-1.38-.27-2.76-.57-4.11-.32-.89-1.23-1.44-2.17-1.3-.94.19-.83.94-.83,1.62.02,1.83.03,3.67.03,5.51Z"/>
    <path d="m118,23.01c-1.76,2.1-4.51,3.11-7.21,2.66-2.68-.29-4.81-1.5-5.69-4.16-1-3-.51-6.38,2-8.37,2.5-2.1,6.1-2.25,8.76-.36,1.36.94,2.45,3.8,2,5.35-.18.28-.46.48-.79.55-2.1.55-4.22,1-6.32,1.59-.81.22-.73.73-.25,1.25,1,1.13,2.34.77,3.58.72.44-.03.86-.16,1.25-.36,1.19-.61,2.22-.79,2.67,1.13Zm-8.55-6.35c.08.09.25.46.48.5,1,.19,2.79-.76,2.59-1.34-.26-.53-.73-.92-1.29-1.08-.8-.22-1.71.73-1.78,1.92h0Z"/>
    <path d="m112.81,28.8c-.33,1.03-1.29,1.74-2.37,1.74-2.27.1-4.54.24-6.81.43-.7.11-1.4.26-2.09.45-1.83.34-3.66.76-5.51.94-1.66.16-3.34,0-5,.05-3.77,0-7.55.08-11.33.15-1.69,0-1.74.06-1.73-1.68,0-2.91-.31-2.47,1.95-2.46,7.82,0,15.63.07,23.45.11l8.26.07c.4.04.79.11,1.18.2Z"/>
    <path class="cls-1" d="m86.72,14.27v-5.51c0-.68-.11-1.43.83-1.62.94-.14,1.85.41,2.17,1.3.3,1.35.49,2.73.57,4.11.08,2.55,0,5.11,0,7.67,0,.04,0,.08,0,.12-.08.93.09,2.07-1.24,2.24-1,.13-2.35-1.33-2.36-2.44v-5.87h.03Z"/>
    <path class="cls-1" d="m109.45,16.66c.07-1.19,1-2.14,1.78-1.92.56.16,1.03.55,1.29,1.08.2.58-1.62,1.53-2.59,1.34-.23-.04-.4-.41-.48-.5Z"/>
    <path d="m268.55,15.71c0,.07,0,.19.08.19.79.17,1.4.81,1.54,1.61.22.7.78,1.36.54,2.18-.01.11.02.23.1.31.28.4.5.83.66,1.29.44.53.68,1.2.69,1.89,0,.08.11.18.17.28.66.88,1.01,1.96,1,3.06-.04.24.06.48.27.61.48.3.47.77.46,1.25.03.47-.19.92-.57,1.19-.7.59-1.58.94-2.5,1v13.32l1.31.4s.06.08.09.08c1.19,0,2.05.83,3.11,1.18h.24c0-.56.52-.48.75-.75.37-.42.85-.7,1.21-1.15s1.17-.77,1.43-1.32,1-.62,1.06-1.21c.58-.08.55-.83,1.13-1,.29-.08.53-.53.69-.86s.54-.26.74-.62c.29-.46.69-.84,1.15-1.12l1-1.16c.25-.21.2-.4,0-.58s-.35-.29-.54-.42c-.64-.39-.9-1.19-.62-1.88.29-.77.96-1.33,1.76-1.48.76-.2,1.48-.54,2.11-1,.16-.18.4-.26.63-.22.48,0,1,.05,1.26-.45h.1c.5-.34,1.16-.19,1.65-.7s1.06-.49,1.59-.75,1-.56,1.59-.81c1.15-.45,2.46-.12,3.26.82.46.58.5,1.38.1,2-.54.76-1.02,1.57-1.42,2.42l-.26.49c-.06.1-.2.17-.22.27,0,.46-.05.92-.16,1.37-.19.4-.76.64-.56,1.21-.38.64-.71,1.31-1,2-.25.34-.39.74-.4,1.16.04.62-.32,1.19-.89,1.43-1.32.66-2,.47-2.8-.3-.41-.38-.51-.35-1,0-.33.22-.62.5-.85.83-.22.29-.62.43-.89.7-1.29,1.26-2.62,2.48-3.8,3.83-1,1.19-2.14,2.33-3.25,3.44-.27.27-.25.49-.08.83.39.79.69,1.63,1.09,2.42.14.27.22.57.23.87.06.87.21,1,1,1h12.68v-.6c-.05-1.22.91-2.25,2.13-2.29.06,0,.13,0,.19,0,.62-.04,1.22.15,1.71.53.43.36.96.58,1.52.64.61.04,1.19.22,1.71.54.52.27,1.18.27,1.61.78.18.14.42.19.64.14.42-.07.86.04,1.19.32.64.57,1.55.57,2.17,1.14.91,0,1.33.57,1.57,1.35,0,.05.13.06.2.09v1c-.07,0-.2,0-.2.08-.12.94-.91,1.32-1.61,1.54s-1.35.78-2.18.54h-.22c-.41.65-1.27.5-1.76,1-.17.19-.45.42-.66.4-1.35-.13-2.3.85-3.46,1.23-.29.09-.52.28-.86.24-.23-.01-.45.06-.64.19-.55.38-1.27.43-1.87.14-.86-.26-1-1.06-1.16-1.77-.06-.56-.06-1.13,0-1.69h-12.57c-.7,0-1.21.34-1.12,1,.17,1.18-.63,2-.84,3-.04.41-.19.79-.43,1.12-.5.45.16.68.08,1,.81.2.91,1.1,1.5,1.54.59.48,1.13,1.01,1.62,1.59.39.41.74.86,1.14,1.26s.88.78,1.31,1.19.85.84,1.27,1.27.86.84,1.27,1.27c.18.27.5.41.82.37.18,0,.34-.12.41-.28.42-.85,1.44-1.2,2.29-.78.23.11.43.28.59.48.51.52,1.16,1,1.18,1.79.46.46.57,1.15,1.16,1.56.46.23.65.79.42,1.25,0,.01-.01.02-.02.03-.14.21,0,.25.08.34.38.39.57.93.52,1.47.15.73.43,1.42.83,2.05.14.18.26.37.36.57.26.5.5,1,.75,1.49.54.96.21,2.18-.76,2.73-.05.03-.1.05-.14.07-.58.33-1.3.3-1.85-.09-1-.64-2.12-.93-3.08-1.56-.15-.1-.38-.06-.57-.09-.19,0-.37-.04-.55-.1-.69-.44-1.41-.83-2.16-1.15-.86-.27-1.48-1.06-2.51-.94-.68.08-2.41-1.44-2.56-2.06-.09-.75.21-1.49.8-1.95.15-.1.34-.15.48-.26.14-.09.18-.26.09-.4-.02-.04-.05-.07-.09-.09-.33-.37-.81-.63-.93-1.17-.62.05-.54-.76-1.08-.85-.34-.05-.13-.74-.66-.65-.24-.65-.88-1-1.28-1.48-.45-.48-.93-.93-1.45-1.33-.46-.38-.9-.78-1.31-1.21-.39-.46-.84-.86-1.26-1.28l-1.46-1.4c-.56.29-1.13.56-1.71.79-.49.19-.95.43-1.39.71-.43.31-.97.46-1.5.41v13.22c.74-.14,1.49.11,2,.66.55.44.87,1.1.89,1.8-.05.64-.23,1.26-.52,1.83-.35.8-1,1.47-1,2.5-.08.66-.36,1.29-.79,1.8-.26.29-.39.67-.36,1.06.01.57-.17,1.13-.51,1.59-.37.62-1,1.15-.92,2-.31,1.06-1.43,1.66-2.49,1.35-.25-.07-.47-.19-.67-.35-.58-.35-.96-.97-1-1.65,0-.33-.43-.67-.43-1,.03-.54-.15-1.07-.5-1.48-.32-.37-.18-1-.66-1.3-.18-.14-.29-.35-.29-.58.23-1.2-.76-1.93-1.09-2.92-.08-.24-.39-.49-.34-.68.24-1-.44-1.6-.79-2.32-.21-.3-.21-.7,0-1,.33-.53.51-1.19,1.22-1.39.18-.07.36-.1.55-.1.21,0,.41.19.62.22.32.02.63.02.95,0v-13.2c-.19-.01-.39-.01-.58,0-.61.06-1.23-.11-1.73-.47-.44-.27-.9-.51-1.37-.72-.17-.06-.34-.15-.49-.26-.48-.47-.46-.47-.85-.12-.63.58-1.31,1.12-1.92,1.71-.36.35-.57.87-1,1.14-.42.29-.8.63-1.15,1-.42.44-.8.92-1.23,1.35s-.93.84-1.39,1.27c-.56.67-1.18,1.3-1.85,1.86-.16.15-.29.34-.37.55-.31.56-.31.57.18.89.71.49,1.02,1.38.77,2.21-.13.66-.71,1.13-1.38,1.14-.27.02-.52.13-.73.3-.68.44-1.49.66-2.16,1.15-.54-.23-.73.36-1.09.53s-.85.09-1.13.52c-.18.24-.47.37-.77.36-.66-.07-1.32.15-1.81.6-.71.5-1.62.55-2.26,1.24-.45.48-2,0-2.35-.6-.52-.67-.61-1.58-.23-2.34.3-.55.51-1.16.61-1.78.16-.58.41-1.12.74-1.62.3-.76.68-1.5,1.12-2.19.28-.37.35-.9.77-1.24.13-.1.15-.45.1-.66-.25-1.21.72-1.94,1.1-2.91.47-.16.71-.71,1.27-.71s1.33-.09,1.84.47c.12.16.26.3.43.41.16.08.49.12.54,0,.21-.36.8-.29.87-.82,0-.13.29-.22.44-.34.32-.28.78-.51.93-.86.21-.47.56-.87,1-1.14,1.07-.75,2.01-1.65,2.81-2.68.53-.63,1.34-1.08,1.56-2,.58-.29.87-.92,1.38-1.26.28-.18.35-.29.14-.49-.32-.42-.56-.89-.71-1.39-.21-.43-.58-.76-.64-1.3,0-.31-.33-.58-.45-.89s-.22-.78-.34-1.21h-13.1v1.18c-.02,1.2-1.01,2.17-2.21,2.16-.66.07-1.31-.12-1.83-.53-.39-.35-.87-.57-1.39-.64-1.04-.16-2.03-.53-2.92-1.1-.43-.23-.91-.37-1.4-.39-.35,0-.69-.1-1-.27-.52-.3-1-.68-1.51-1-.17-.09-.35-.14-.54-.15-.79-.02-1.42-.68-1.4-1.48,0-.04,0-.09,0-.13-.04-.28-.04-.56,0-.84.02-.49.3-.94.74-1.17.73-.27,1.43-.61,2.1-1,.09-.06.2-.16.29-.14.93.12,1.64-.52,2.45-.76.5-.15.92-.54,1.49-.46.11.02.23-.01.32-.09.66-.67,1.64-.7,2.4-1.17.21-.09.43-.15.65-.17.18,0,.45,0,.54-.11.58-.68,1.35-.34,2-.34s1.11.7,1.14,1.35,0,1.11,0,1.74h12.13c.37,0,.84.23,1.11-.18.31-.42.53-.89.64-1.4.06-.53.25-1.03.54-1.47.37-.51.4-1.22.93-1.66,0,0,0-.22-.1-.3-.21-.24-.46-.45-.67-.68-.58-.53-1.11-1.12-1.56-1.76-.18-.36-.5-.62-.88-.73-.26-.08-.47-.43-.64-.7-.33-.51-1-.69-1.23-1.33-.1-.26-.32-.46-.59-.55-.37-.08-.47-.41-.73-.56-.43-.24-.55-.75-1-1-.33-.27-.65-.57-.94-.88-.38-.36-.74-.74-1.15-1.15-.16.15-.32.3-.46.46-.74.9-2.07,1.02-2.97.27-.2-.16-.36-.36-.49-.58-.29-.43-.55-.88-.76-1.36-.1-.24-.18-.49-.24-.74,0-.14,0-.36-.12-.43-.6-.42-.56-1-.64-1.67-.11-.55-.35-1.06-.7-1.49-.34-.54-.63-1.1-.87-1.69-.26-.57-.29-1.28-.92-1.66-.61-1.15-.23-2.59.88-3.28.61-.39,1.39-.39,2,0,.43.31.97.46,1.5.43.15,0,.36,0,.45.07.34.44.86.7,1.41.7.5,0,.76.74,1.39.69.13,0,.3.24.43.39.17.22.43.34.71.32.19,0,.37.06.51.19.3.43.84.64,1.35.52.37-.02.73.12,1,.37.38.22.79.4,1.22.51.4.13.71.46.79.88.16.45.17.93.05,1.39-.11.38-.23.86-.82,1-.3.06-.52.47-.77.72.25.37.42.89.76,1.06.45.24.84.58,1.14,1,.3.32.61.62.94.9.36.43.74.82,1.16,1.19.43.36.83.75,1.2,1.17l1.27,1.27c.4.4.77.81,1.19,1.18s.56.79,1.09.86c0,0,0,.06.08.08.3.23.24.86.71.81s.62-.48,1-.54c.76-.15,1.21-1,2-.87.53-.62,1.27-.46,2-.49v-13.55h-1.33c-.69,0-1.29-.11-1.55-.87,0-.14-.24-.22-.33-.35-.48-.53-.48-1.34,0-1.87.55-.84,1.03-1.72,1.42-2.65.1-.2.16-.43.15-.66-.04-.54.16-1.07.53-1.46.37-.38.4-1,.86-1.33.03-.02.04-.06.05-.09-.15-.78.12-1.58.71-2.11.2-.71.44-1.41.74-2.09.17-.55.59-.98,1.13-1.17.11-.07.21-.14.31-.23l1.29-.02Zm12,43.27c.09-.04.18-.06.28-.07h14.88c1,0,1.36.51,1,1.42-.17.52-.19,1.08-.07,1.61.13.66.57.77,1.05.29.33-.34.59-.57,1.06-.22.08.07.34-.09.52-.14.23-.09.42-.25.53-.47.12-.18.55-.13.85-.2.11-.03.21-.07.3-.13q.8-.47,1.22-.48c.27,0,.55.06.76-.22.21-.4.67-.61,1.11-.51.08,0,.23-.09.28-.17.34-.59.89-.56,1.46-.55.22,0,.54,0,.64-.14.33-.46.9-.68,1.46-.58.08,0,.15-.03.2-.09.11-.1.2-.23.25-.37,0-.06-.17-.18-.28-.25-.58-.34-1.38-.26-1.77-1h-.23c-.32.07-.65-.07-.81-.35-.22-.28-.57-.43-.93-.38-.47,0-1,.12-1.28-.38-.05-.06-.12-.09-.2-.09-.53.15-.83-.17-1.11-.52-.23-.31-.61-.48-1-.45-.46,0-1,.12-1.28-.39-.05-.06-.12-.09-.2-.08-.52.15-.79-.21-1.11-.51-.15-.11-.32-.18-.51-.2-.7-.06-1.14.65-.89,1.43.26.5.15,1.11-.27,1.49-.29.26-.59.18-.88.18h-14.4c-.3.06-.59-.13-.65-.43-.01-.07-.01-.14,0-.21,0-.39-.06-.69-.49-.81-.12-.07-.2-.18-.22-.31-.02-.2-.02-.4,0-.6,0-.58,0-.57-.55-1.2-.1-.11-.16-.25-.16-.4.05-.32-.09-.64-.35-.83-.28-.16-.44-.48-.4-.8,0-.19-.07-.37-.21-.5-.43-.34-.22-.56.07-.84l10.44-10.44c.59-.58.78-.53,1.57,0,.28.19.57.28.67.68.11.26.4.41.68.35.5,0,.7-.19.71-.71s-.08-1.27.57-1.69c.11-.1.16-.26.14-.41-.1-.49.34-.66.53-1,.15-.32.28-.66.36-1,0-.07.11-.17.17-.17.5,0,.39-.37.39-.66,0-.67-.13-1.37.61-1.8.09-.06.12-.28.11-.42,0-.36.1-.69.42-.74s.33-.29.3-.5c-.1-.38.12-.76.49-.88.2-.06.31-.26.25-.46-.04-.12-.13-.22-.25-.25-.42-.09-.86-.12-1.29-.07-.22.04-.43.16-.56.34-.29.36-.68.29-1.05.39s-.61.45-.91.69h-.12c-.48-.15-.67.41-1,.45-.37.03-.72.18-1,.43-.38.47-.99.68-1.58.55-.37-.06-.72.07-.79.37s-.18.39-.46.36c-.38-.08-.77.06-1,.37-.09.11-.36.11-.55.1-.28-.02-.54.17-.6.44-.11.28.02.59.3.7.56.19.85.67,1.24,1s.48.47,0,.91c-2.85,2.86-5.7,5.72-8.57,8.57-.21.2-.5.32-.7.53-.46.48-.87,1-1.32,1.49-.38.35-.96.37-1.37.06-.2-.19-.46-.3-.73-.3-.19,0-.37-.07-.5-.21-.36-.61-.93-.51-1.48-.5-.28,0-.65.06-.72-.26-.12-.56-.51-.46-.88-.46h-1.16v-15c0-1.55-.16-1.64,1.52-1.56.46.02.91-.1,1.31-.33.37-.2.41-.45.07-.73-.41-.32-.6-.85-.5-1.36.05-.23.01-.47-.1-.67-.26-.24-.4-.58-.4-.93-.05-.22-.17-.41-.36-.54-.39-.33-.4-.36-.34-.87.12-.49-.06-1-.46-1.3-.08-.06-.25-.14-.24-.17.11-.55-.21-.88-.55-1.23-.13-.11-.23-.25-.27-.42,0-.64,0-1.26-.59-1.68-.09-.07-.11-.28-.13-.42s.06-.44,0-.59-.33-.41-.49-.4-.44.3-.43.45c.08.56-.16,1.11-.61,1.45-.11.09-.08.35-.14.53s-.09.41-.22.5c-.41.32-.6.85-.5,1.36,0,.32.15.74-.41.77,0,.34-.03.67-.1,1,0,.14-.27.28-.44.34-.42.14-.5.43-.49.81s.14.76,0,.94c-.41.48-.49,1.13-.84,1.57-.27.38-.38.85-.33,1.32-.03.32.2.6.51.64.04,0,.08,0,.12,0h1.8c.6,0,.91.45.65.82-.18.3-.25.65-.2,1,0,4.28,0,8.56,0,12.84-.05.34,0,.69.16,1,.22.33-.24.86-.67.87h-.48c-.69,0-1.45-.18-1.92.6-.05.09-.27.09-.42.12s-.41,0-.44.06c-.35.83-1.41.43-1.84,1.1-.51,0-1,0-1.54.05s-.23-.46-.39-.45c-.6.06-.49-.65-1-.82s-.63-.66-1-1c-.43-.3-.8-.67-1.09-1.11-.24-.37-.55-.69-.93-.92-.35-.27-.54-.75-.87-1.06-.73-.67-1.65-1.14-2.09-2.1-.61,0-.63-.79-1.15-.92-.06-.59-.94-.52-.92-1.16-.5-.07-.64-.56-1-.82s-.53-.27-.45-.58c.08-.24.23-.46.42-.63.45-.43.92-.84,1.4-1.23.29-.16.41-.51.3-.82-.12-.27-.4-.42-.69-.36-.19.02-.37-.04-.51-.17-.21-.25-.53-.37-.85-.3-.55,0-1.11.06-1.47-.52-.13-.14-.32-.21-.51-.19-.27,0-.53-.12-.71-.32-.27-.27-.59-.49-.94-.63-.25-.08-.49-.17-.72-.29-.56-.3-1.26-.32-1.66-.93h-.11c-.63.14-1.29-.1-1.68-.61-.19-.25-1-.15-1.16.06-.33.32-.33.85-.01,1.17.04.04.09.08.14.12.14.12.35.32.32.45-.06.44.15.88.53,1.11.38.32.08.77.24,1.1s.8.31.7.89c-.08.24.02.5.23.63.4.27.59.76.48,1.23-.1.44.08.89.45,1.14.38.24.17.66.3,1,.19.33.42.64.69.91v.12c-.1.38.19.45.42.66.4.37.6,0,.8-.13.36-.16.67-.43.86-.77.16-.37.35-.39.68-.42.36-.01.7.15.91.44l5.51,5.51c1.67,1.67,3.33,3.34,5,5,.25.25.27.42,0,.68-.48.49-1.18.86-1,1.73,0,0,0,.07-.08.08-.78.41-.59,1.13-.62,1.79,0,.13-.09.36-.16.37-.79.16-.53.77-.55,1.23,0,.84-.12.94-1,.95h-14.69c-.7,0-.84-.14-.85-.8s0-1.36,0-2c0-.17,0-.44-.15-.5-.18-.06-.38-.03-.53.09-.26.31-.67.45-1.06.37-.27,0-.55-.07-.76.21-.21.41-.66.62-1.11.52-.07,0-.22.08-.27.17-.35.58-.9.56-1.47.54-.26,0-.54-.07-.75.21-.21.41-.66.62-1.11.52-.08,0-.23.08-.28.17-.34.58-.9.56-1.46.54-.19,0-.47,0-.56.06-.37.45-.91.73-1.5.77-.14.06-.23.2-.24.35,0,.17.21.45.3.45.68-.09,1.34.21,1.73.77.53-.21.73.36,1.12.51s.7.31,1.08.14c.13-.06.18-.19.35,0,.4.41.73,1,1.46.82.1,0,.23.2.36.29.35.3.8.45,1.26.42.37-.11.77.02,1,.33.11.11.26.16.41.14.38-.08.57.16.81.37.21.17.43.31.66.43.08.05.22.1.25.07.23-.25.59-.41.53-.86-.03-.36-.03-.72,0-1.08,0-.62,0-.59.7-1.38.25-.3.49-.17.73-.17h13.68c.38,0,.74.14,1,.41.29.24.45.62.41,1-.13.51.07,1.05.5,1.36.13.13.21.31.2.5-.04.33.12.64.41.8.41.28.34.68.32,1.06,0,.54.81.33.73.89-.01.04-.01.08,0,.12.06.54-.15,1.08-.55,1.45-.33.4-.7.77-1.12,1.08-.46.26-.63.71-1,1-1.44,1.39-2.84,2.82-4.26,4.23-.24.23-.55.38-.78.62-1,1-1.89,2-2.86,3-.34.35-.9.18-1.3-.26-.3-.41-.7-.73-1.16-.94-.4-.15-.91,0-.88.26.06.66-.32,1-.69,1.41-.11.12-.07.37-.07.57,0,.55,0,1.11-.53,1.46-.12.1-.19.25-.18.4.04.36-.12.72-.43.91-.24.15-.36.43-.3.71.04.24-.07.48-.29.6-.29.26-.45.62-.47,1-.06.34-.49.59-.67.92-.11.21-.11.47,0,.68.41.43-.21.54-.22.83,0,.07-.28.1-.37.2-.34.35-.23.84.25,1.31.11.1.1.1.54-.39.09-.1.31-.09.37-.2.18-.3.41.06.51,0,.41-.38.76-.82,1.41-.68.07,0,.19-.14.25-.24.25-.38.7-.56,1.14-.45.47.1.96-.09,1.25-.48.12-.14.3-.23.49-.23.44.09.64-.22.9-.45s.34-.29.48-.26c.54.1.8-.28,1.08-.6s.89.11,1.16-.41c.19-.36.6-.55,1-.46.3,0,.3-.21.25-.39-.05-.18-.14-.34-.27-.48-.39-.41-.8-.79-1.18-1.2s-.29-.56,0-.9c.11-.12.23-.22.34-.34l10.14-10.05c.14-.14.26-.35.43-.41s.54-.11.62,0c.32.41.91.53,1.13,1.07.1.16.28.25.47.25.36-.05.72.13.9.44.22.32.52.31.84.3h1c.24,0,.54-.07.69.05.38.28.72.62,1,1,.21.28-.07.56-.19.84-.03.16-.03.32,0,.48v12.6c0,.19.02.38.07.57.13.5,0,.74-.4.76h-1.8c-.39,0-.8-.09-.87.47-.58,0-.45.34-.15.57.42.32.62.85.51,1.36,0,.44,0,.89.57,1,.09,0,.21.48.26.72s.1.61.2.63c.45.09.41.37.41.68,0,.55-.11,1.12.5,1.48.13.08.15.33.21.51s.09.5.23.61c.41.33.6.86.5,1.37,0,.25-.12.56.17.76.44.29.66.82.55,1.34-.05.41.3.32.49.27.29-.03.5-.28.47-.57,0,0,0,0,0,0,0-.28,0-.55.24-.74.4-.22.6-.69.48-1.13v-.33c.68-.17.42-.72.42-1.12-.04-.36.12-.71.41-.92.59-.43.43-1.28,1-1.77.16-.14.06-.6,0-.92s0-.63.31-.83.38-.62.45-1,.47-.6.67-.92c.08-.11,0-.32,0-.47-.2-.5-.64-.88-1.17-1h-1.58v-16.32h1.86c.18,0,.36-.06.52-.16.31-.23.49-.57,1-.58.33,0,.65-.35,1-.44.41-.09.78-.29,1.08-.58.61-.55.7-.56,1.24,0l11,11-2.17,2.16c.49.48,1,1.17,1.66,1,1-.21,1.23.84,2,.78h.24c.26,0,.32.1.46.34.35.62,1.38.26,1.72,1,0,.07.29.05.44.07h.12c.56,0,1.12-.06,1.47.53.1.11.24.18.39.18.31-.02.62.09.85.31.24.24.56.37.9.39.42,0,.24.63.72.59.14,0,.31.11.42-.07.26-.41.22-1.17-.17-1.36s-.47-.3-.42-.67c0-.18,0-.48-.07-.55-.48-.34-.5-1-.86-1.32-.4-.38-.59-.94-.51-1.49.01-.27-.01-.54-.08-.8,0-.13-.39-.23-.37-.29.13-.59-.28-.87-.61-1.21-.14-.13-.37-.31-.35-.44.09-.56-.24-.87-.58-1.22-.11-.15-.17-.33-.16-.52,0-.64-.5-.91-.9-1.15s-.68.24-1,.5l-.34.34c-.62.5-1.49.5-2.11,0-.23-.24-.35-.69-.61-.79-.34-.09-.59-.36-.65-.7-.68,0-.63-.92-1.25-1-.23-.61-.88-.79-1.27-1.25-.55-.52-1.08-1.07-1.57-1.64-.42-.63-1.3-.82-1.45-1.65-.72-.1-.87-.84-1.36-1.21s-.82-.85-1.3-1.22c-.16-.12-.22-.37-.37-.5-.67-.55-.69-.63-.12-1.23.2-.2.4-.39.59-.59s.46-.38.44-.53c-.09-.62.38-.89.64-1.31s.59-.68.18-1.23c-.28-.39-.09-.66.45-1.29.1-.11.16-.25.19-.39.03-.26.05-.52.06-.78Z"/>
    <path class="cls-1" d="m280.55,58.98c.01.27.01.53,0,.8-.03.14-.09.28-.19.39-.54.63-.73.9-.45,1.29.41.55,0,.9-.18,1.23s-.73.69-.64,1.31c0,.15-.28.36-.44.53s-.39.39-.59.59c-.57.6-.55.68.12,1.23.15.13.21.38.37.5.48.37.84.86,1.3,1.22s.64,1.11,1.36,1.21c.15.83,1,1,1.45,1.65.5.57,1.04,1.12,1.6,1.64.39.46,1,.64,1.27,1.25.62.08.57,1,1.25,1,.06.34.31.61.65.7.26.1.38.55.61.79.62.5,1.49.5,2.11,0l.34-.34c.28-.26.55-.76,1-.5s.92.51.9,1.15c0,.19.05.37.16.52.34.35.67.66.58,1.22,0,.13.21.31.35.44.33.34.74.62.61,1.21,0,.06.33.16.37.29.07.26.09.53.08.8-.08.55.11,1.11.51,1.49.36.33.38,1,.86,1.32.1.07.09.37.07.55,0,.37.09.51.42.67s.43.95.17,1.36c-.11.18-.28.06-.42.07-.48,0-.3-.57-.72-.59-.34-.02-.66-.15-.9-.39-.23-.22-.54-.33-.85-.31-.15,0-.29-.07-.39-.18-.35-.59-.91-.55-1.47-.53h-.12c-.15,0-.41,0-.44-.07-.34-.77-1.37-.41-1.72-1-.14-.24-.2-.36-.46-.34h-.24c-.77.06-1-1-2-.78-.64.15-1.17-.54-1.66-1l2.17-2.16-11-11c-.54-.55-.63-.54-1.24,0-.3.29-.67.49-1.08.58-.35.09-.67.43-1,.44-.49,0-.67.35-1,.58-.16.1-.34.16-.52.16h-1.86v16.3h1.61c.53.12.97.5,1.17,1,0,.15.07.36,0,.47-.2.32-.61.58-.67.92s-.08.78-.45,1-.31.51-.31.83.11.78,0,.92c-.56.49-.4,1.34-1,1.77-.29.21-.45.56-.41.92,0,.4.26.95-.42,1.12,0,0-.06.23,0,.33.12.44-.08.91-.48,1.13-.28.19-.26.46-.24.74.03.29-.18.54-.47.57,0,0,0,0,0,0-.19,0-.54.14-.49-.27.11-.52-.11-1.05-.55-1.34-.29-.2-.18-.51-.17-.76.1-.51-.09-1.04-.5-1.37-.14-.11-.15-.41-.23-.61s-.08-.43-.21-.51c-.61-.36-.51-.93-.5-1.48,0-.31,0-.59-.41-.68-.1,0-.15-.41-.2-.63s-.17-.71-.26-.72c-.62-.08-.61-.53-.57-1,.08-.54-.17-1.07-.63-1.35-.3-.23-.43-.52.15-.57.07-.56.48-.48.87-.47h1.8c.42,0,.53-.26.4-.76-.05-.19-.07-.38-.07-.57v-12.6c-.03-.16-.03-.32,0-.48.12-.28.4-.56.19-.84-.28-.38-.62-.72-1-1-.15-.12-.45-.05-.69-.05h-1c-.32,0-.62,0-.84-.3-.18-.31-.54-.49-.9-.44-.19,0-.37-.09-.47-.25-.22-.54-.81-.66-1.13-1.07-.08-.11-.43-.07-.62,0s-.29.27-.43.41l-10.1,10.09c-.11.12-.23.22-.34.34-.29.34-.3.59,0,.9s.79.79,1.18,1.2c.13.14.22.3.27.48.05.18.05.43-.25.39-.4-.09-.81.1-1,.46-.27.52-.84.06-1.16.41s-.54.7-1.08.6c-.14,0-.34.14-.48.26s-.46.54-.9.45c-.19,0-.37.09-.49.23-.29.39-.78.58-1.25.48-.44-.11-.89.07-1.14.45-.06.1-.18.25-.25.24-.65-.14-1,.3-1.41.68-.1.09-.33-.27-.51,0-.06.11-.28.1-.37.2-.44.49-.43.49-.54.39-.48-.47-.59-1-.25-1.31.09-.1.37-.13.37-.2,0-.29.63-.4.22-.83-.11-.21-.11-.47,0-.68.18-.33.61-.58.67-.92.02-.38.18-.74.47-1,.22-.12.33-.36.29-.6-.06-.28.06-.56.3-.71.31-.19.47-.55.43-.91,0-.15.06-.3.18-.4.58-.35.54-.91.53-1.46,0-.2,0-.45.07-.57.37-.41.75-.75.69-1.41,0-.3.48-.41.88-.26.46.21.86.53,1.16.94.4.44,1,.61,1.3.26,1-1,1.9-2,2.86-3,.23-.24.54-.39.78-.62,1.42-1.41,2.82-2.84,4.26-4.23.34-.33.51-.78,1-1,.42-.31.79-.68,1.12-1.08.4-.37.61-.91.55-1.45-.01-.04-.01-.08,0-.12.08-.56-.76-.35-.73-.89,0-.38.09-.78-.32-1.06-.29-.16-.45-.47-.41-.8,0-.19-.07-.37-.2-.5-.43-.31-.63-.85-.5-1.36.04-.38-.12-.76-.41-1-.26-.27-.62-.42-1-.41h-13.68c-.24,0-.48-.13-.73.17-.66.79-.7.76-.7,1.38-.03.36-.03.72,0,1.08.06.45-.3.61-.53.86,0,0-.17,0-.25-.07-.23-.12-.45-.26-.66-.43-.24-.21-.43-.45-.81-.37-.15.02-.3-.03-.41-.14-.23-.31-.63-.44-1-.33-.46.03-.91-.12-1.26-.42-.13-.09-.26-.3-.36-.29-.73.15-1.06-.41-1.46-.82-.17-.17-.22,0-.35,0-.38.17-.71,0-1.08-.14s-.59-.72-1.12-.51c-.39-.56-1.05-.86-1.73-.77-.09,0-.27-.28-.3-.45,0-.15.1-.29.24-.35.59-.04,1.13-.32,1.5-.77.09-.1.37-.06.56-.06.56,0,1.12,0,1.46-.54.05-.09.2-.19.28-.17.45.1.9-.11,1.11-.52.21-.28.49-.22.75-.21.57,0,1.12,0,1.47-.54.05-.09.2-.19.27-.17.45.1.9-.11,1.11-.52.21-.28.49-.22.76-.21.39.08.8-.06,1.06-.37.15-.12.35-.15.53-.09.11.06.14.33.15.5v2c0,.64.15.79.85.8h14.76c.83,0,.91-.11,1-.95,0-.46-.24-1.07.55-1.23.07,0,.15-.24.16-.37,0-.66-.16-1.38.62-1.79,0,0,.08-.06.08-.08-.15-.87.55-1.24,1-1.73.25-.26.23-.43,0-.68-1.68-1.66-3.34-3.33-5-5l-5.59-5.48c-.21-.29-.55-.45-.91-.44-.33,0-.52.05-.68.42-.19.34-.5.61-.86.77-.2.1-.4.5-.8.13-.23-.21-.52-.28-.42-.66v-.12c-.27-.27-.5-.58-.69-.91-.13-.3.08-.72-.3-1-.37-.25-.55-.7-.45-1.14.11-.47-.08-.96-.48-1.23-.21-.13-.31-.39-.23-.63.1-.58-.55-.55-.7-.89s.14-.78-.24-1.1c-.38-.23-.59-.67-.53-1.11,0-.13-.18-.33-.32-.45-.38-.25-.5-.76-.25-1.15.03-.05.07-.1.12-.14.13-.21,1-.31,1.16-.06.39.51,1.05.75,1.68.61h.11c.4.61,1.1.63,1.66.93.23.12.47.21.72.29.35.14.67.36.94.63.18.2.44.31.71.32.19-.02.38.05.51.19.36.58.92.54,1.47.52.32-.07.64.05.85.3.14.13.32.19.51.17.29-.06.57.09.69.36.11.31-.01.66-.3.82-.48.39-1,.8-1.4,1.23-.19.17-.34.39-.42.63-.08.31.23.41.45.58s.47.75,1,.82c0,.64.86.57.92,1.16.52.13.54.9,1.15.92.44,1,1.36,1.43,2.09,2.1.33.31.52.79.87,1.06.38.23.69.55.93.92.29.44.66.81,1.09,1.11.38.3.64.83,1,1s.37.88,1,.82c.16,0,0,.48.39.45s1,0,1.54-.05c.43-.67,1.49-.27,1.84-1.1,0-.07.29,0,.44-.06s.37,0,.42-.12c.47-.78,1.23-.59,1.92-.6h.48c.43,0,.89-.54.67-.87-.16-.31-.21-.66-.16-1v-12.84c-.05-.35.02-.7.2-1,.26-.37-.12-.8-.65-.82s-1.2,0-1.8,0c-.32.03-.6-.21-.63-.52,0-.04,0-.08,0-.12-.05-.47.06-.94.33-1.32.35-.44.43-1.09.84-1.57.16-.18,0-.62,0-.94s.07-.67.49-.81c.17-.06.4-.2.44-.34.07-.33.1-.66.1-1,.56,0,.43-.45.41-.77-.1-.51.09-1.04.5-1.36.13-.09.17-.33.22-.5s0-.44.14-.53c.45-.34.69-.89.61-1.45,0-.15.27-.44.43-.45s.39.22.49.4,0,.39,0,.59,0,.35.13.42c.64.42.61,1,.59,1.68,0,.19.06.37.18.52.34.35.66.68.55,1.23,0,0,.16.11.24.17.4.3.58.81.46,1.3-.06.51-.05.54.34.87.19.13.31.32.36.54,0,.35.14.69.4.93.11.2.15.44.1.67-.1.51.09,1.04.5,1.36.34.28.3.53-.07.73-.4.23-.85.35-1.31.33-1.68-.08-1.52,0-1.52,1.56v15h1.16c.37,0,.76-.1.88.46.07.32.44.26.72.26.55,0,1.12-.11,1.48.5.13.14.31.21.5.21.27,0,.53.11.73.3.41.31.99.29,1.37-.06.45-.48.86-1,1.32-1.49.2-.21.49-.33.7-.53,2.86-2.85,5.72-5.71,8.57-8.57.44-.44.45-.46,0-.91s-.68-.85-1.24-1c-.28-.11-.41-.42-.3-.7.06-.27.32-.46.6-.44.19,0,.46,0,.55-.1.23-.31.62-.45,1-.37.28,0,.38,0,.46-.36s.42-.43.79-.37c.59.13,1.2-.08,1.58-.55.28-.25.63-.4,1-.43.34,0,.53-.6,1-.45h.12c.3-.24.57-.6.91-.69s.76,0,1.05-.39c.13-.18.34-.3.56-.34.43-.05.87-.02,1.29.07.2.06.31.26.25.46-.04.12-.13.22-.25.25-.37.12-.59.5-.49.88,0,.21.1.44-.3.5s-.46.38-.42.74c0,.14,0,.36-.11.42-.74.43-.61,1.13-.61,1.8,0,.29.11.65-.39.66-.06,0-.14.1-.17.17-.08.34-.21.68-.36,1-.19.33-.63.5-.53,1,.02.15-.03.31-.14.41-.65.42-.56,1.06-.57,1.69s-.21.67-.71.71c-.28.06-.57-.09-.68-.35-.1-.4-.39-.49-.67-.68-.79-.56-1-.61-1.57,0l-10.34,10.31c-.29.28-.5.5-.07.84.14.13.22.31.21.5-.04.32.12.64.4.8.26.19.4.51.35.83,0,.15.06.29.16.4.54.63.54.62.55,1.2-.02.2-.02.4,0,.6.02.13.1.24.22.31.43.12.5.42.49.81-.06.3.14.59.44.64.07.01.14.01.21,0h14.4c.29,0,.59.08.88-.18.42-.38.53-.99.27-1.49-.25-.78.19-1.49.89-1.43.19.02.36.09.51.2.32.3.59.66,1.11.51.08,0,.15.02.2.08.32.51.82.42,1.28.39.39-.03.77.14,1,.45.28.35.58.67,1.11.52.08,0,.15.03.2.09.31.5.81.4,1.28.38.36-.05.71.1.93.38.16.28.49.42.81.35h.23c.39.7,1.19.62,1.77,1,.11.07.29.19.28.25-.05.14-.14.27-.25.37-.05.06-.12.09-.2.09-.56-.1-1.13.12-1.46.58-.1.13-.42.14-.64.14-.57,0-1.12,0-1.46.55-.05.08-.2.19-.28.17-.44-.1-.9.11-1.11.51-.21.28-.49.21-.76.22q-.42,0-1.22.48c-.09.06-.19.1-.3.13-.3.07-.73,0-.85.2-.11.22-.3.38-.53.47-.18,0-.44.21-.52.14-.47-.35-.73-.12-1.06.22-.48.48-.92.37-1.05-.29-.12-.53-.1-1.09.07-1.61.32-.91-.06-1.42-1-1.42h-14.92c-.09,0-.19,0-.28.02Z"/>
  </g>
</svg>