<?xml version="1.0" encoding="UTF-8"?>
<svg id="Layer_2" data-name="Layer 2" xmlns="http://www.w3.org/2000/svg" viewBox="0 0 325.32 45.7">
  <defs>
    <style>
      .cls-1 {
        fill: #fbaf1a;
      }
    </style>
  </defs>
  <g id="Layer_1-2" data-name="Layer 1">
    <g>
      <path class="cls-1" d="m112.12,45.12V.5h44.68v44.62h-44.68Z"/>
      <path d="m156.31,1v43.62h-43.68V1h43.68m-35.22,26.49h8.64v-9h9v-9h-17.64v18m8.64,9h18v-18h-9v9h-9v9M157.31,0h-45.68v45.62h45.68V0h0Z"/>
    </g>
    <path d="m14.35,15.73h14.95V.78H0v29.9h14.35v-14.95Zm14.95,0v14.95h-14.95v14.95h29.9V15.73h-14.95Z"/>
    <path d="m70.89,45.7h-15.04V.13h45.12v22.79h-15.04v-11.39h-15.04v34.18Z"/>
    <path d="m213.08.13v34.18h-30.08v11.39h-15.04V.13h45.12Zm-15.04,11.39h-15.04v11.39h15.04v-11.39Z"/>
    <path d="m269.2.13v34.18h-30.08v11.39h-15.04V.13h45.12Zm-15.04,11.39h-15.04v11.39h15.04v-11.39Z"/>
    <path d="m295.24,45.7h-15.04V.13h45.12v22.79h-15.04v-11.39h-15.04v34.18Z"/>
  </g>
</svg>