<?xml version="1.0" encoding="UTF-8"?>
<svg id="Layer_2" data-name="Layer 2" xmlns="http://www.w3.org/2000/svg" viewBox="0 0 865.43 286.91">
  <defs>
    <style>
      .cls-1 {
        fill: #fff;
      }
    </style>
  </defs>
  <g id="Layer_2-2" data-name="Layer 2">
    <path d="m20.95,38.7c7.6,3.36,14.08,7.85,19.45,13.46.78,24.53-.36,45.52-.75,71.05.4,32.13.25,20.25,16.45,35.9h.75c1.74-3.74,3.24-7.73,4.49-11.97-.48-13.19,1.55-49.99-2.24-61.33h.75c-1.79-4.61-2.39-9.83-2.24-14.96l12.71-8.97c0-.87,5.98-7.11,17.95-18.7,5.26.29,3.42,5.78,2.99,14.21,0,6.36.5,16.58,1.5,30.66-2.22,40.9,2.6,76.88,1.5,111.44-18.82,21.94-36.77,41.39-53.85,58.34-.55.09-4.01.88-4.49.75-12.59-10.59-21.57-20.07-26.93-28.42-2-.75-2.99-2.49-2.99-5.24.7-.75-1.36-42.11.75-41.88-1.2-.8-.64-8.5-.75-9.72.11-1.39,1.15-1.59,2.24-1.5l26.18,21.69c.05,11.42-2.46,17.02,11.22,25.43,13.79-20.88,13.96-17.71,13.46-32.91h-.75c-6.86,3.99-11.59,5.98-14.21,5.98-17.08-12.59-27.8-21.81-32.16-27.67-5.48-52.81-.98-49.98-5.98-87.5l.75-3.74c-2.5,0-3.74-.75-3.74-2.24,1-1.62,1.5-2.87,1.5-3.74C1.22,64.5-.15,61.98.01,58.89c5.23-2.69,11.9-14.27,20.94-20.19Z"/>
    <path d="m158.01,65.06c5.61,8.1,13.84,17.58,24.68,28.42,6.5,5.2,10.3,9.95,7.48,14.21,1.18.86.65,7.73.75,8.98,7.6,7.22-1.68,10.91-2.99,23.93,5.84,14.9,5.57,18.82,2.99,33.66v22.44c-.06,2.65,5.35,1.11,6.73,1.5,5.98.87,8.97,2.12,8.97,3.74-.98,14.49-3.04,24.51-4.49,23.93-.87.5-1.87.75-2.99.75-11.13-.6-26.12,2.04-37.4-3.74-5.49,6.86-11.97,20.82-19.45,41.88-5.19.68-4.48-3.78-7.48-16.45-1.99-6.73-5.49-11.22-10.47-13.46-4.1-1.51-10.04-22.5-20.94-23.93.41-7.61,2.77-11.57.75-16.45,1.89-9.28-1.96-19.39,2.24-23.19-.94-6.02-2.7-7.41,4.49-11.97-4.82-4.25-8.07-16.82-5.98-27.67-2-9.6-2.99-16.08-2.99-19.45,10.15-7.76,43-31.27,53.1-47.12h3Zm-20.19,42.63c-.97,4.87-.76,21.72-.75,26.93.17,3.01,6.99,36.79-2.99,36.65l-1.5,2.24c0,1.5,2.24,5.49,6.73,11.97,2.12,8.48,4.86,15.71,8.23,21.69,6.48-5.98,9.72-9.22,9.72-9.72-1.11-6.55-1.26-25.59,0-32.16-1.41,1.63-1.35-30.12-.75-32.91-2.97-4.47-2.16-10.16-2.24-14.96,0-.5.25-.75.75-.75,0-2.12-4.74-4.36-14.21-6.73.13-.67-1.51-2.4-2.99-2.24h0Z"/>
    <path d="m329.01,114.92c1.28,15.93,1.6,32.98,1.5,49.36,0,1.87.75,6.86,2.24,14.96-1.19,5.08-.63,14.43-.75,19.45,8.23,8.23,17.7,18.45,28.42,30.66,6.48-4.74,18.2-15.95,35.15-33.65,6.61-3.12,14.09-11.34,22.44-24.68,6.48-5.48,9.72-8.48,9.72-8.98l-2.99-2.99c-36.37,15.22-30.67,42.7-52.35,44.87-12.97-11.47-19.45-18.95-19.45-22.44v-32.16c0-.75.75-1.5,2.24-2.24,1.99.5,2.99,1.5,2.99,2.99h.75c7.48-5.24,15.21-12.22,23.18-20.94.5,0,3.74-4.24,9.72-12.71.75,0,1.74-.5,2.99-1.5,5.78-.75,5.07,4.3,5.98,17.95h1.5c0-1,.25-1.5.75-1.5-2.74-11.36.32-19.96,11.22-29.92-1.5-3.37-13.96-15.08-37.4-35.15,0-.75-.75-1.5-2.24-2.24-1.87,2.87-7.85,9.1-17.95,18.7,0,3.62-8.48,11.84-25.43,24.68-1,1.12-1.75,3.62-2.24,7.48h.01Zm38.89-35.9c4.46-.5,3.76,1.76,5.98,10.47-.06.5-.89,4.85-.75,5.24,1.5,9.97,3.8,7.25,11.78,7.25l1.5,2.24c-.12,3.01-3.67,11.51-17.02,15.93-14.05,18.27-14.63,13.79-12.71-.75-.58-6.2-.8-14.7-.75-22.44l.75-1.5c-5.09-2.91,1.77-7.26,11.22-16.45h0Z"/>
    <path d="m489.28,28.24c.97.22,2.49,4.55,4.55,12.99,8.87,18.83,16.24,30.74,22.08,35.72,6.52,2.92,9.29,3.79,9.09,5.85-26.8,26.48-24.33,22.99-22.73,49.36-.64.44-1.82.8-2.6.65-8.68-13.04-7.38-30.51-4.55-48.06-10.72-2.16-17.86-5.19-21.43-9.09,0-.54-1.08-1.62-3.25-3.25h-.65c.35,11.36-2.63,21.79-9.09,29.23,10.06,19.53,39.01,53.75,62.35,59.1,1.58,11.05.05,23.5,0,53.9.65,0,1.3.65,1.95,1.95-7.04,5.19-10.72,7.79-11.04,7.79-25.55,29.33-38.54,47.3-38.97,53.9-4.3,4.38-4.39-5-7.15-19.48-2.27-7.15-11.36-21-27.28-41.57-9.09-8.33-13.64-13.53-13.64-15.59,26.31-20.84,18.41-25.18,27.93-42.21,4.92-.6,5.43,7.12,7.15,24.03-.54,7.62-6.28,33.78,11.69,35.07,3.4,4.97,24.7-.91,22.08-3.9,1.3-15.37,2.6-27.93,3.9-37.67-15.16-8.77-36.37-24.14-63.65-46.11-1.41,0-4.01-1.73-7.79-5.19.43-15.04.65-25.87.65-32.47-.65-10.33.42-11.02,14.29-20.13,0-.86,9.74-9.31,29.23-25.33,10.28-12.56,15.91-19.05,16.89-19.48h0Z"/>
    <path d="m689.88,49.65c1.77,16.74,2.37,30.29,2.24,44.87,0,2.99-6.48,11.97-19.44,26.93h-2.24c-15.33-14.83-23.81-25.06-25.43-30.66v-1.5l5.98-41.14v-1.5c-15.21-4.74-25.18-9.22-29.92-13.46.21,1.11.93,4.16.75,5.23-3.06,23.63.96,63.95,2.24,63.57,8.48,10.83,19.75,21.62,25.43,30.66,1.36,7.28-17.86,2.65-26.93,1.5-1,2.74-1.5,6.98-1.5,12.71,3.15,1.2,24.01-5.82,25.43-2.99.5,0,.75-.25.75-.75,26.74.95-12.36,26.74-26.18,36.65,2.98,29.17.49,48.92,2.99,82.27h.75c1.24-1.74,7.48-6.98,18.7-15.71-1.18-18.27-5.71-62.68,5.98-71.05,2.74-1,9.47-7.23,20.2-18.7h1.5c4.24,6.73,10.97,16.21,20.19,28.42l.75,3.74-.75,10.47c3.49,36.52,5.24,55.72,5.24,57.59,2.62,0,6.11,2.74,10.47,8.23,4.98-15.08,8.72-23.56,11.22-25.43-2.24-18.74-2.24-47.69,0-68.06-3.87,0-10.6-7.73-20.19-23.18-4.47-2.26-5.35-4.46-1.5-6.73h16.45c3.65-.85,1.63-8.52,1.5-11.22l-11.22,2.24v-.75c-.69,1.23-10.04.62-11.22.75-.75,0-1.75-1-2.99-2.99v-.75c6.48-7.73,16.45-17.2,29.92-28.42.69-10.71-1.66-36.24-1.5-41.14,0-.75.5-6.73,1.5-17.95.13-3.77-.66-10.11,1.5-13.46h-.75c-13.46,11.84-23.44,18.82-29.92,20.94v.77Z"/>
    <g>
      <path class="cls-1" d="m282.99,55.28c-1.87,0-2.8-13.99-2.8-41.96h-13.99l-4.9-1.4c-3.49.93-5.58,1.4-6.28,1.4v15.37c0,5.94.46,12.01,1.4,18.18-.35,6.99-1.28,10.49-2.8,10.49h-11.19c-3.03,0-7.69.24-13.99.7v23.08c13.52,0,20.28,1.17,20.28,3.5,2.8,33.69,4.2,65.16,4.2,94.42v6.3l.7,8.39h-.7c1.4,4.31,2.1,9.68,2.1,16.09,0,1.4-3.03,2.33-9.09,2.8,0,.47-.24.7-.7.7,13.05,22.73,19.58,36.25,19.58,40.57h.7c0-.7,3.5-6.53,10.49-17.48l14.69-21.68c-9.33-.81-13.99-1.98-13.99-3.5,1.4-6.18,2.1-11.77,2.1-16.79v-3.5c0-6.99-.23-13.29-.7-18.88.93-13.52,2.1-43.36,3.5-89.52,3.26-2.8,9.79-4.2,19.58-4.2v-1.4c0-3.96-.24-10.26-.7-18.88-1.98-.81-7.81-1.75-17.49-2.8Z"/>
      <path d="m320.08,69.95l.7-6.29c-.59-35.9-1.29-53.85-2.1-53.85.46-.82.7-1.98.7-3.5v-2.8c-.7-1.4-1.4-2.1-2.1-2.1h-11.19l-1.4.7c0-.46-.24-.7-.7-.7h-13.29l-4.2.7c-2.1-.47-11.43-1.17-27.98-2.1h-8.39l-17.49,2.1C227.98.71,224.95.01,223.55.01h.01c-6.06.34-9.09,1.04-9.09,2.09l-3.5,15.39c0,.82.7,1.99,2.1,3.5v58.05c0,3.5,1.4,18.42,4.2,44.76-.94,16.9-1.4,36.02-1.4,57.35v9.09c1.4,48.96,3.03,77.4,4.9,85.33,0,1.87,30.54,3.27,91.62,4.2,5.12,0,7.69-2.33,7.69-6.99v-77.63c0-10.84-.24-22.73-.7-35.67.35-5.6.82-18.89,1.4-39.87-.47-7.35-.7-12.71-.7-16.09.46-12.82.7-20.98.7-24.48-.47-5.83-.7-8.85-.7-9.09Zm-18.9,8.41c-9.79,0-16.32,1.4-19.58,4.2-1.4,46.16-2.57,76-3.5,89.52.47,5.59.7,11.89.7,18.88v3.5c0,5.02-.7,10.61-2.1,16.79,0,1.52,4.66,2.69,13.99,3.5l-14.69,21.68c-6.99,10.95-10.49,16.78-10.49,17.48h-.7c0-4.32-6.53-17.84-19.58-40.57.46,0,.7-.23.7-.7,6.06-.47,9.09-1.4,9.09-2.8,0-6.41-.7-11.78-2.1-16.09h.7l-.7-8.39v-6.3c0-29.26-1.4-60.73-4.2-94.42,0-2.33-6.76-3.5-20.28-3.5v-23.08c6.3-.46,10.96-.7,13.99-.7h11.19c1.52,0,2.45-3.5,2.8-10.49-.94-6.17-1.4-12.24-1.4-18.18v-15.37c.7,0,2.79-.47,6.28-1.4l4.9,1.4h13.99c0,27.97.93,41.96,2.8,41.96,9.68,1.05,15.51,1.99,17.49,2.8.46,8.62.7,14.92.7,18.88v1.4Z"/>
    </g>
    <g>
      <path class="cls-1" d="m825.73,54.36c-6.76,2.45-7.29,24.95-1.57,67.49l-2.1,21.68c.46,25.3,1.16,42.55,2.1,51.76v1.4c0,2.8-3.5,9.56-10.49,20.28-2.92,6.18-7.58,12.47-13.99,18.88h-1.4c-1.05-.46-3.85-9.56-8.39-27.28-8.39-10.49-12.59-16.32-12.59-17.48,1.4-7.11,2.1-13.64,2.1-19.58-.93-23.31-1.4-36.83-1.4-40.56,0-27.74.93-52.92,2.8-75.53-18.3-12.12-29.26-18.18-32.87-18.18.01,2.11,2.34,7.23,6.99,15.37.93,3.73,1.4,8.39,1.4,13.99,0,7.46-.24,15.15-.7,23.08l2.8,50.36c-.47,3.15-.7,5.71-.7,7.69v13.99c-.93,18.53-1.4,28.56-1.4,30.07v22.38l-.7,4.9c10.37,3.85,21.1,15.27,32.17,34.27.46,0,3.5,4.2,9.09,12.59,2.91-3.85,10.14-11.77,21.68-23.78,2.45-2.91,8.04-10.84,16.79-23.78l8.39-7.69c-.47-4.66-.7-8.16-.7-10.49v-2.1c0-8.16.23-14.69.7-19.58-.47-5.25-.7-10.14-.7-14.69.93-17.83,1.4-30.66,1.4-38.47V56.8c0-9.32.46-15.39,1.4-18.18h-1.4c-5.71,8.04-11.95,13.29-18.71,15.74Z"/>
      <path d="m863.33,22.53c-2.57-.46-4.67-.7-6.3-.7l-90.92-.7h0c-3.39.01-12.48.71-27.28,2.11h-.7c-.94.24-1.87,1.4-2.8,3.5l2.1,251.08c.7,4.19,1.87,7.23,3.5,9.09,31.23,0,60.61-1.64,88.12-4.9h11.89c3.26,0,8.4.24,15.39.7,2.8,0,4.2-10.72,4.2-32.17,0-11.55.7-34.56,2.1-69.07,1.4-34.51,2.33-87.72,2.8-159.64-.47,0-1.17.24-2.1.7Zm-18.89,34.27v68.55c0,7.81-.47,20.64-1.4,38.47,0,4.55.23,9.44.7,14.69-.47,4.89-.7,11.42-.7,19.58v2.1c0,2.33.23,5.83.7,10.49l-8.39,7.69c-8.75,12.94-14.34,20.87-16.79,23.78-11.54,12.01-18.77,19.93-21.68,23.78-5.59-8.39-8.63-12.59-9.09-12.59-11.07-19-21.8-30.42-32.17-34.27l.7-4.9v-22.38c0-1.51.47-11.54,1.4-30.07v-13.99c0-1.98.23-4.54.7-7.69l-2.8-50.36c.46-7.93.7-15.62.7-23.08,0-5.6-.47-10.26-1.4-13.99-4.65-8.14-6.98-13.26-6.99-15.37,3.61,0,14.57,6.06,32.87,18.18-1.87,22.61-2.8,47.79-2.8,75.53,0,3.73.47,17.25,1.4,40.56,0,5.94-.7,12.47-2.1,19.58,0,1.16,4.2,6.99,12.59,17.48,4.54,17.72,7.34,26.82,8.39,27.28h1.4c6.41-6.41,11.07-12.7,13.99-18.88,6.99-10.72,10.49-17.48,10.49-20.28v-1.4c-.94-9.21-1.64-26.46-2.1-51.76l2.1-21.68c-5.72-42.54-5.19-65.04,1.57-67.49,6.76-2.45,13-7.7,18.71-15.74h1.4c-.94,2.79-1.4,8.86-1.4,18.18Z"/>
    </g>
  </g>
</svg>